<svg width="78" height="67" viewBox="0 0 78 67" fill="none" xmlns="http://www.w3.org/2000/svg">
<path d="M57.0791 2.80429L48.0532 2.7915C37.9125 2.7915 31.3593 8.72405 31.3593 17.9062V24.8751H22.284C21.4998 24.8751 20.8647 25.4361 20.8647 26.1281V36.2253C20.8647 36.9171 21.5005 37.4777 22.284 37.4777H31.3593V62.9558C31.3593 63.6479 31.9944 64.2082 32.7785 64.2082H44.6192C45.4035 64.2082 46.0385 63.647 46.0385 62.9558V37.4777H56.6498C57.434 37.4777 58.069 36.9171 58.069 36.2253L58.0736 26.1281C58.0736 25.7958 57.9234 25.4776 57.6579 25.2425C57.3921 25.0074 57.03 24.8751 56.6534 24.8751H46.0385V18.9675C46.0385 16.1281 46.8055 14.6866 50.9974 14.6866L57.0778 14.6847C57.8614 14.6847 58.4964 14.1237 58.4964 13.4324V4.0566C58.4964 3.36592 57.862 2.80557 57.0791 2.80429Z" fill="#B5B8B6"/>
</svg>
