<svg width="411" height="140" viewBox="0 0 411 140" fill="none" xmlns="http://www.w3.org/2000/svg">
<g clip-path="url(#clip0_1267_128)">
<path d="M71.5249 -3.05176e-05C55.414 18.5985 46.5333 42.3786 46.5073 66.9906C46.5333 91.5787 55.3968 115.337 71.4796 133.929C87.5634 115.338 96.428 91.5791 96.4548 66.9906C96.4532 42.3898 87.6041 18.6111 71.5249 -3.05176e-05Z" fill="#CEC471"/>
<path d="M192.485 83.5667C169.62 75.2585 144.796 75.7703 122.552 85.0085C100.349 94.2872 82.2217 111.651 71.4795 133.929C94.3275 142.214 119.127 141.695 141.35 132.466C163.573 123.206 181.724 105.849 192.485 83.5667Z" fill="#423D5A" fill-opacity="0.613909"/>
<path d="M1.25264 21.014C-2.56977 45.581 2.42075 70.5259 15.3114 91.2859C28.2334 111.997 48.1694 127.133 71.4796 133.929C75.2831 109.383 70.2903 84.4651 57.4126 63.7244C44.5045 42.9891 24.5702 27.8288 1.25264 21.014Z" fill="#C3B961" fill-opacity="0.688249"/>
<path d="M141.707 21.014C145.529 45.581 140.538 70.5259 127.648 91.2859C114.726 111.997 94.7898 127.133 71.4797 133.929C67.6761 109.383 72.669 84.4651 85.5466 63.7244C98.4547 42.9891 118.389 27.8288 141.707 21.014Z" fill="#5B573E" fill-opacity="0.688249"/>
<path d="M114.366 83.9836C114.366 82.7492 114.163 81.6789 113.756 80.7727C113.35 79.8664 112.819 79.1242 112.163 78.5461C111.506 77.968 110.764 77.5383 109.936 77.2571C109.108 76.9758 108.28 76.8352 107.452 76.8352C106.342 76.8352 105.405 76.9524 104.639 77.1867C103.874 77.4211 103.249 77.7414 102.764 78.1477C102.295 78.5539 101.952 79.0383 101.733 79.6008C101.53 80.1477 101.428 80.7414 101.428 81.3821C101.428 82.1321 101.561 82.8899 101.827 83.6555C102.108 84.4055 102.514 85.1399 103.045 85.8586L102.952 86.1164C102.061 86.5539 101.163 86.7727 100.256 86.7727C99.7251 86.7727 99.2251 86.6946 98.7563 86.5383C98.3032 86.3664 97.9048 86.1242 97.561 85.8117C97.2329 85.4992 96.9673 85.1164 96.7642 84.6633C96.5767 84.2102 96.4829 83.7024 96.4829 83.1399C96.4829 82.218 96.7017 81.3508 97.1392 80.5383C97.5923 79.7258 98.186 78.9836 98.9204 78.3117C99.6548 77.6399 100.506 77.0383 101.475 76.5071C102.444 75.9758 103.444 75.5305 104.475 75.1711C105.506 74.7961 106.538 74.5149 107.569 74.3274C108.616 74.1242 109.584 74.0227 110.475 74.0227C112.116 74.0227 113.514 74.2414 114.67 74.6789C115.842 75.1164 116.788 75.7571 117.506 76.6008C118.241 77.4289 118.772 78.4367 119.1 79.6242C119.444 80.8117 119.616 82.1555 119.616 83.6555C119.616 84.6867 119.569 85.8196 119.475 87.0539C119.397 88.2883 119.303 89.5852 119.194 90.9446C119.084 92.2883 118.983 93.6789 118.889 95.1164C118.811 96.5539 118.772 97.9836 118.772 99.4055C118.772 101.655 119.186 103.351 120.014 104.491C120.858 105.616 121.959 106.179 123.319 106.179C124.522 106.179 125.866 105.734 127.35 104.843L128.03 105.851C126.983 106.898 125.842 107.695 124.608 108.241C123.374 108.788 122.077 109.062 120.717 109.062C119.702 109.062 118.764 108.89 117.905 108.546C117.045 108.202 116.303 107.695 115.678 107.023C115.053 106.335 114.569 105.476 114.225 104.445C113.881 103.413 113.709 102.218 113.709 100.859C113.709 100.452 113.717 100.046 113.733 99.6399C113.764 99.2336 113.819 98.8039 113.897 98.3508H113.756C113.084 99.6946 112.303 101.023 111.413 102.335C110.538 103.632 109.569 104.796 108.506 105.827C107.459 106.843 106.334 107.663 105.131 108.288C103.944 108.929 102.694 109.249 101.381 109.249C100.303 109.249 99.3188 109.062 98.4282 108.687C97.5376 108.312 96.772 107.796 96.1313 107.14C95.5063 106.484 95.0142 105.71 94.6548 104.82C94.311 103.913 94.1392 102.929 94.1392 101.866C94.1392 100.491 94.3892 99.2414 94.8892 98.1164C95.4048 96.9914 96.1079 95.9836 96.9985 95.093C97.9048 94.2024 98.9829 93.4367 100.233 92.7961C101.483 92.1399 102.842 91.6008 104.311 91.1789C105.78 90.7414 107.334 90.4211 108.975 90.218C110.616 89.9992 112.288 89.8899 113.991 89.8899C114.1 88.9055 114.186 87.9524 114.249 87.0305C114.327 86.1086 114.366 85.093 114.366 83.9836ZM99.9751 100.085C99.9751 100.695 100.038 101.28 100.163 101.843C100.303 102.39 100.514 102.874 100.795 103.296C101.092 103.718 101.459 104.054 101.897 104.304C102.35 104.538 102.889 104.655 103.514 104.655C104.217 104.655 104.944 104.491 105.694 104.163C106.444 103.835 107.178 103.382 107.897 102.804C108.631 102.226 109.327 101.538 109.983 100.741C110.655 99.9289 111.256 99.0461 111.788 98.093C112.319 97.1399 112.756 96.1399 113.1 95.093C113.459 94.0305 113.694 92.9446 113.803 91.8352C112.647 91.8664 111.499 91.9446 110.358 92.0696C109.217 92.1789 108.131 92.3586 107.1 92.6086C106.084 92.8586 105.139 93.1867 104.264 93.593C103.389 93.9992 102.631 94.5071 101.991 95.1164C101.366 95.7102 100.874 96.4211 100.514 97.2492C100.155 98.0617 99.9751 99.0071 99.9751 100.085ZM128.147 126.054C128.022 122.71 127.842 119.398 127.608 116.116C127.374 112.851 127.1 109.562 126.788 106.249C126.788 105.968 126.928 105.827 127.209 105.827C127.616 105.827 128.038 105.827 128.475 105.827C128.913 105.812 129.358 105.804 129.811 105.804C130.639 103.491 131.522 101.132 132.459 98.7258C133.413 96.3039 134.436 93.8352 135.53 91.3196C136.639 88.8039 137.842 86.2336 139.139 83.6086C140.452 80.9836 141.889 78.2883 143.452 75.5227C143.639 75.1946 143.85 74.9367 144.084 74.7492C144.319 74.5461 144.561 74.3977 144.811 74.3039C145.061 74.1946 145.311 74.1242 145.561 74.093C145.827 74.0617 146.069 74.0461 146.288 74.0461C146.772 74.0461 147.249 74.093 147.717 74.1867C148.186 74.2649 148.631 74.4055 149.053 74.6086C149.491 77.2492 149.905 79.6711 150.295 81.8742C150.686 84.0774 151.069 86.1242 151.444 88.0149C151.819 89.8899 152.178 91.6321 152.522 93.2414C152.866 94.8508 153.217 96.3742 153.577 97.8117C153.936 99.2336 154.295 100.601 154.655 101.913C155.014 103.21 155.389 104.499 155.78 105.78C156.577 105.796 157.319 105.812 158.006 105.827C158.694 105.843 159.303 105.866 159.834 105.898C160.116 105.913 160.311 105.96 160.42 106.038C160.53 106.116 160.584 106.241 160.584 106.413C160.584 106.445 160.577 106.491 160.561 106.554C160.561 106.601 160.553 106.663 160.538 106.741C159.991 110.007 159.475 113.249 158.991 116.468C158.522 119.687 158.084 122.945 157.678 126.241L155.803 126.171C155.772 123.14 155.694 120.132 155.569 117.148C155.459 114.179 155.342 111.179 155.217 108.148C154.405 108.132 153.639 108.116 152.92 108.101C152.202 108.101 151.491 108.093 150.788 108.077C150.084 108.077 149.374 108.077 148.655 108.077C147.936 108.077 147.178 108.077 146.381 108.077H139.163C138.35 108.077 137.6 108.077 136.913 108.077C136.241 108.077 135.6 108.077 134.991 108.077C134.397 108.093 133.834 108.101 133.303 108.101C132.772 108.116 132.256 108.132 131.756 108.148C131.584 109.554 131.42 111.015 131.264 112.53C131.108 114.046 130.959 115.577 130.819 117.124C130.678 118.671 130.538 120.202 130.397 121.718C130.272 123.249 130.147 124.718 130.022 126.124L128.147 126.054ZM146.803 105.71C147.397 105.71 147.983 105.71 148.561 105.71C149.155 105.71 149.741 105.718 150.319 105.734C149.772 103.749 149.256 101.734 148.772 99.6867C148.288 97.6242 147.819 95.4914 147.366 93.2883C146.928 91.0696 146.499 88.7492 146.077 86.3274C145.67 83.9055 145.256 81.3196 144.834 78.5696H144.67C142.077 83.2727 139.811 87.9133 137.874 92.4914C135.952 97.0539 134.327 101.476 132.999 105.757C134.561 105.757 136.069 105.749 137.522 105.734C138.991 105.718 140.272 105.71 141.366 105.71H146.803ZM186.155 61.6242C186.155 60.8899 186.116 60.2649 186.038 59.7492C185.975 59.218 185.819 58.7883 185.569 58.4602C185.319 58.1321 184.959 57.8977 184.491 57.7571C184.038 57.6008 183.428 57.5227 182.663 57.5227C182.147 57.5227 181.514 57.5539 180.764 57.6164C180.014 57.6633 179.233 57.7492 178.42 57.8742L178.186 55.9289C180.483 55.3352 182.452 54.8977 184.092 54.6164C185.749 54.3352 187.116 54.1946 188.194 54.1946C189.225 54.1946 190.014 54.3352 190.561 54.6164C191.124 54.8821 191.53 55.2883 191.78 55.8352C192.045 56.3664 192.202 57.0227 192.249 57.8039C192.295 58.5852 192.319 59.4758 192.319 60.4758C192.319 60.6789 192.303 61.2024 192.272 62.0461C192.256 62.8899 192.233 63.968 192.202 65.2805C192.17 66.5774 192.124 68.0617 192.061 69.7336C192.014 71.4055 191.959 73.1633 191.897 75.0071C191.85 76.8508 191.795 78.7414 191.733 80.6789C191.686 82.6164 191.631 84.4992 191.569 86.3274C191.522 88.1399 191.467 89.8664 191.405 91.5071C191.358 93.1321 191.319 94.5696 191.288 95.8196C191.256 97.0539 191.225 98.0539 191.194 98.8196C191.178 99.5852 191.17 100.015 191.17 100.109C191.17 100.843 191.194 101.507 191.241 102.101C191.288 102.679 191.444 103.171 191.709 103.577C191.975 103.984 192.389 104.296 192.952 104.515C193.514 104.734 194.319 104.843 195.366 104.843C195.725 104.843 196.186 104.835 196.749 104.82C197.311 104.804 197.928 104.796 198.6 104.796C199.288 104.78 200.014 104.765 200.78 104.749C201.545 104.734 202.311 104.726 203.077 104.726H205.959C206.663 104.726 207.366 104.734 208.069 104.749C208.772 104.749 209.491 104.757 210.225 104.773C210.959 104.788 211.725 104.804 212.522 104.82C213.319 104.82 214.17 104.827 215.077 104.843C214.983 104.468 214.905 104.062 214.842 103.624C214.78 103.187 214.733 102.632 214.702 101.96C214.67 101.273 214.647 100.437 214.631 99.4524C214.616 98.4524 214.608 97.2258 214.608 95.7727C214.608 91.3352 214.647 87.218 214.725 83.4211C214.803 79.6242 214.905 76.1008 215.03 72.8508C215.155 69.5852 215.288 66.5696 215.428 63.8039C215.584 61.0227 215.733 58.4446 215.874 56.0696C215.889 55.7258 215.991 55.4367 216.178 55.2024C216.381 54.9524 216.631 54.7492 216.928 54.593C217.225 54.4211 217.561 54.2961 217.936 54.218C218.311 54.1399 218.686 54.1008 219.061 54.1008C219.983 54.1008 220.959 54.3274 221.991 54.7805C221.788 57.4524 221.6 59.9758 221.428 62.3508C221.272 64.7102 221.131 66.9914 221.006 69.1946C220.897 71.3977 220.795 73.5617 220.702 75.6867C220.608 77.7961 220.53 79.9446 220.467 82.1321C220.42 84.3039 220.381 86.5461 220.35 88.8586C220.334 91.1555 220.327 93.593 220.327 96.1711C220.327 97.593 220.334 98.7961 220.35 99.7805C220.381 100.765 220.475 101.585 220.631 102.241C220.788 102.882 221.022 103.39 221.334 103.765C221.647 104.14 222.092 104.429 222.67 104.632C223.249 104.82 223.975 104.945 224.85 105.007C225.741 105.07 226.834 105.116 228.131 105.148C228.428 105.148 228.577 105.28 228.577 105.546V105.64C228.577 105.702 228.569 105.757 228.553 105.804C227.928 109.491 227.327 113.179 226.749 116.866C226.186 120.554 225.631 124.288 225.084 128.07L222.764 127.976C222.78 126.913 222.795 125.765 222.811 124.53C222.842 123.296 222.866 122.038 222.881 120.757C222.913 119.491 222.936 118.241 222.952 117.007C222.983 115.773 223.006 114.616 223.022 113.538C223.038 112.476 223.053 111.523 223.069 110.679C223.084 109.851 223.092 109.202 223.092 108.734C223.092 108.515 223.061 108.359 222.999 108.265C222.936 108.171 222.725 108.124 222.366 108.124C221.475 108.109 220.631 108.093 219.834 108.077C219.053 108.062 218.303 108.054 217.584 108.054C216.881 108.038 216.194 108.03 215.522 108.03C214.866 108.015 214.209 108.007 213.553 108.007C210.147 108.007 207.124 108.023 204.483 108.054C201.842 108.085 199.545 108.116 197.592 108.148C195.655 108.179 194.03 108.21 192.717 108.241C191.42 108.273 190.397 108.288 189.647 108.288C188.772 108.288 188.045 108.171 187.467 107.937C186.889 107.687 186.428 107.359 186.084 106.952C185.741 106.53 185.499 106.054 185.358 105.523C185.217 104.976 185.147 104.398 185.147 103.788C185.147 103.335 185.194 102.03 185.288 99.8742C185.397 97.718 185.514 94.8274 185.639 91.2024C185.78 87.5774 185.897 83.2727 185.991 78.2883C186.1 73.3039 186.155 67.7492 186.155 61.6242ZM228.834 76.0617C229.991 75.8274 231.272 75.593 232.678 75.3586C234.1 75.1086 235.561 74.8899 237.061 74.7024C238.577 74.5149 240.1 74.3586 241.631 74.2336C243.163 74.1086 244.631 74.0461 246.038 74.0461C246.866 74.0461 247.756 74.0852 248.709 74.1633C249.678 74.2258 250.639 74.3586 251.592 74.5617C252.545 74.7492 253.459 75.0149 254.334 75.3586C255.209 75.6867 255.983 76.1242 256.655 76.6711C257.342 77.2024 257.889 77.8508 258.295 78.6164C258.702 79.3821 258.905 80.2805 258.905 81.3117C258.905 82.593 258.624 83.7414 258.061 84.7571C257.499 85.7571 256.772 86.6242 255.881 87.3586C254.991 88.0774 253.991 88.6711 252.881 89.1399C251.772 89.6086 250.67 89.9446 249.577 90.1477V90.2649C250.858 90.3274 252.124 90.5227 253.374 90.8508C254.639 91.1789 255.772 91.6633 256.772 92.3039C257.788 92.9446 258.608 93.7649 259.233 94.7649C259.858 95.7649 260.17 96.9758 260.17 98.3977C260.17 99.6477 259.967 100.78 259.561 101.796C259.17 102.796 258.624 103.687 257.92 104.468C257.217 105.249 256.397 105.929 255.459 106.507C254.522 107.07 253.506 107.538 252.413 107.913C251.319 108.273 250.178 108.538 248.991 108.71C247.819 108.882 246.647 108.968 245.475 108.968C244.397 108.968 243.342 108.89 242.311 108.734C241.28 108.577 240.311 108.366 239.405 108.101L235.092 108.687L234.717 108.663C234.92 105.991 235.092 103.359 235.233 100.765C235.389 98.1555 235.514 95.6477 235.608 93.2414C235.702 90.8196 235.764 88.5305 235.795 86.3742C235.842 84.218 235.866 82.2414 235.866 80.4446C235.866 79.8508 235.795 79.3664 235.655 78.9914C235.53 78.6164 235.342 78.3274 235.092 78.1242C234.842 77.9055 234.538 77.7571 234.178 77.6789C233.819 77.6008 233.42 77.5617 232.983 77.5617C232.483 77.5617 231.874 77.6008 231.155 77.6789C230.452 77.7571 229.749 77.8508 229.045 77.9602L228.834 76.0617ZM240.131 105.288C240.975 105.695 241.85 105.991 242.756 106.179C243.663 106.366 244.545 106.46 245.405 106.46C246.592 106.46 247.725 106.296 248.803 105.968C249.881 105.624 250.834 105.124 251.663 104.468C252.491 103.796 253.147 102.976 253.631 102.007C254.131 101.023 254.381 99.8899 254.381 98.6086C254.381 97.2336 254.077 96.1008 253.467 95.2102C252.874 94.3039 252.077 93.593 251.077 93.0774C250.092 92.5617 248.959 92.2024 247.678 91.9992C246.413 91.7961 245.108 91.6946 243.764 91.6946C243.264 91.6946 242.756 91.7102 242.241 91.7414C241.741 91.7571 241.241 91.7805 240.741 91.8117L240.131 105.288ZM241.374 76.5774C241.342 77.1867 241.311 77.9446 241.28 78.8508C241.249 79.7571 241.209 80.7805 241.163 81.9211C241.116 83.0617 241.061 84.2961 240.999 85.6242C240.952 86.9524 240.897 88.343 240.834 89.7961C242.381 89.7961 243.889 89.6711 245.358 89.4211C246.842 89.1555 248.163 88.7258 249.319 88.1321C250.475 87.5383 251.405 86.7571 252.108 85.7883C252.827 84.8039 253.186 83.5852 253.186 82.1321C253.186 80.9289 252.928 79.9524 252.413 79.2024C251.897 78.4367 251.233 77.843 250.42 77.4211C249.608 76.9992 248.709 76.7102 247.725 76.5539C246.741 76.3977 245.78 76.3196 244.842 76.3196C244.327 76.3196 243.764 76.343 243.155 76.3899C242.561 76.4211 241.967 76.4836 241.374 76.5774ZM289.163 100.812C289.256 100.859 289.374 100.929 289.514 101.023C289.67 101.101 289.811 101.195 289.936 101.304C290.061 101.398 290.17 101.507 290.264 101.632C290.358 101.741 290.405 101.851 290.405 101.96C290.405 102.023 290.381 102.085 290.334 102.148C289.459 103.366 288.514 104.429 287.499 105.335C286.499 106.226 285.452 106.976 284.358 107.585C283.28 108.179 282.178 108.616 281.053 108.898C279.928 109.195 278.819 109.343 277.725 109.343C275.85 109.343 274.131 108.96 272.569 108.195C271.006 107.429 269.663 106.382 268.538 105.054C267.413 103.726 266.53 102.171 265.889 100.39C265.264 98.593 264.952 96.6711 264.952 94.6242C264.952 92.9524 265.131 91.2805 265.491 89.6086C265.866 87.9367 266.397 86.343 267.084 84.8274C267.788 83.3117 268.639 81.9055 269.639 80.6086C270.639 79.2961 271.772 78.1633 273.038 77.2102C274.319 76.2414 275.717 75.4836 277.233 74.9367C278.764 74.3899 280.405 74.1164 282.155 74.1164C283.311 74.1164 284.413 74.2727 285.459 74.5852C286.506 74.8977 287.42 75.3508 288.202 75.9446C288.999 76.5227 289.631 77.2414 290.1 78.1008C290.569 78.9602 290.803 79.9367 290.803 81.0305C290.803 82.6242 290.28 84.0149 289.233 85.2024C288.202 86.3899 286.772 87.3977 284.944 88.2258C283.116 89.0539 280.959 89.7258 278.475 90.2414C276.006 90.7414 273.334 91.1164 270.459 91.3664V91.7649C270.459 93.7649 270.709 95.593 271.209 97.2492C271.725 98.9055 272.428 100.327 273.319 101.515C274.209 102.687 275.256 103.601 276.459 104.257C277.663 104.913 278.959 105.241 280.35 105.241C281.756 105.241 283.194 104.898 284.663 104.21C286.147 103.507 287.647 102.374 289.163 100.812ZM284.756 81.9914C284.756 81.2727 284.631 80.6008 284.381 79.9758C284.147 79.3508 283.811 78.8117 283.374 78.3586C282.952 77.8899 282.444 77.5227 281.85 77.2571C281.256 76.9914 280.616 76.8586 279.928 76.8586C278.913 76.8586 277.991 77.0383 277.163 77.3977C276.334 77.7571 275.592 78.2492 274.936 78.8742C274.28 79.4836 273.702 80.2024 273.202 81.0305C272.702 81.843 272.272 82.7102 271.913 83.6321C271.569 84.5539 271.288 85.4992 271.069 86.468C270.85 87.4367 270.694 88.3821 270.6 89.3039C272.819 89.1477 274.803 88.8821 276.553 88.5071C278.319 88.1164 279.803 87.6242 281.006 87.0305C282.225 86.4211 283.155 85.7024 283.795 84.8742C284.436 84.0305 284.756 83.0696 284.756 81.9914ZM345.647 105.218C345.069 105.671 344.358 106.132 343.514 106.601C342.686 107.054 341.819 107.468 340.913 107.843C340.006 108.218 339.124 108.523 338.264 108.757C337.405 108.991 336.663 109.109 336.038 109.109C335.616 109.109 335.225 109.07 334.866 108.991C334.522 108.929 334.202 108.765 333.905 108.499C333.624 108.234 333.366 107.843 333.131 107.327C332.913 106.796 332.725 106.077 332.569 105.171C332.413 104.265 332.295 103.14 332.217 101.796C332.139 100.452 332.1 98.8196 332.1 96.8977C332.1 94.7727 332.124 92.8664 332.17 91.1789C332.217 89.4914 332.264 87.9992 332.311 86.7024C332.358 85.4055 332.405 84.2961 332.452 83.3742C332.499 82.4367 332.522 81.6633 332.522 81.0539C332.522 80.5696 332.499 80.1321 332.452 79.7414C332.405 79.3508 332.295 79.0227 332.124 78.7571C331.952 78.4758 331.694 78.2649 331.35 78.1242C331.006 77.968 330.545 77.8899 329.967 77.8899C329.045 77.8899 327.874 77.8977 326.452 77.9133C325.045 77.9133 323.264 77.9211 321.108 77.9367C321.014 79.6711 320.913 81.5305 320.803 83.5149C320.709 85.4836 320.616 87.6789 320.522 90.1008C320.444 92.5071 320.366 95.1867 320.288 98.1399C320.209 101.077 320.147 104.39 320.1 108.077L315.178 108.687L314.803 108.663C314.928 106.445 315.053 104.03 315.178 101.421C315.303 98.8117 315.42 96.1555 315.53 93.4524C315.655 90.7336 315.756 88.0461 315.834 85.3899C315.913 82.7336 315.967 80.2492 315.999 77.9367C315.17 77.9524 314.311 77.9602 313.42 77.9602C312.545 77.9602 311.624 77.9602 310.655 77.9602H304.233C304.295 78.2414 304.342 78.5305 304.374 78.8274C304.405 79.1242 304.42 79.5617 304.42 80.1399C304.42 80.7336 304.389 81.8274 304.327 83.4211C304.28 85.0149 304.202 87.0227 304.092 89.4446C303.999 91.8508 303.881 94.6321 303.741 97.7883C303.616 100.945 303.475 104.374 303.319 108.077L298.538 108.687L298.163 108.663C298.288 107.132 298.397 105.523 298.491 103.835C298.6 102.148 298.694 100.452 298.772 98.7492C298.866 97.0461 298.944 95.3821 299.006 93.7571C299.084 92.1321 299.139 90.6164 299.17 89.2102C299.217 87.7883 299.249 86.5305 299.264 85.4367C299.295 84.3274 299.311 83.4446 299.311 82.7883C299.311 81.9602 299.288 81.2571 299.241 80.6789C299.194 80.0852 299.084 79.5852 298.913 79.1789C298.741 78.7571 298.499 78.4211 298.186 78.1711C297.874 77.9211 297.452 77.7258 296.92 77.5852C296.389 77.4446 295.733 77.3508 294.952 77.3039C294.186 77.2414 293.256 77.2024 292.163 77.1867L292.116 75.218C293.538 75.2492 294.78 75.2727 295.842 75.2883C296.92 75.2883 297.85 75.2961 298.631 75.3117C299.413 75.3117 300.069 75.3117 300.6 75.3117C301.147 75.3117 301.608 75.3117 301.983 75.3117H303.202C308.311 75.3117 312.772 75.3039 316.584 75.2883C320.413 75.2571 323.663 75.2258 326.334 75.1946C329.022 75.1633 331.163 75.1399 332.756 75.1242C334.35 75.093 335.475 75.0774 336.131 75.0774C336.834 75.0774 337.342 75.2492 337.655 75.593C337.967 75.9211 338.124 76.3899 338.124 76.9992C338.124 77.2492 338.092 77.6946 338.03 78.3352C337.983 78.9602 337.92 79.7258 337.842 80.6321C337.764 81.5383 337.67 82.5539 337.561 83.6789C337.467 84.8039 337.381 85.9836 337.303 87.218C337.225 88.4524 337.155 89.7258 337.092 91.0383C337.045 92.3352 337.022 93.6086 337.022 94.8586C337.022 96.4211 337.045 97.7649 337.092 98.8899C337.155 100.015 337.241 100.96 337.35 101.726C337.475 102.491 337.624 103.109 337.795 103.577C337.967 104.03 338.178 104.382 338.428 104.632C338.678 104.882 338.967 105.046 339.295 105.124C339.624 105.202 339.991 105.241 340.397 105.241C341.147 105.241 341.913 105.14 342.694 104.937C343.475 104.718 344.311 104.405 345.202 103.999L345.647 105.218ZM347.499 94.6008C347.499 93.0227 347.663 91.4211 347.991 89.7961C348.319 88.1711 348.803 86.6008 349.444 85.0852C350.084 83.5539 350.874 82.1242 351.811 80.7961C352.764 79.4524 353.858 78.2805 355.092 77.2805C356.327 76.2805 357.702 75.4914 359.217 74.9133C360.733 74.3352 362.381 74.0461 364.163 74.0461C366.163 74.0461 367.928 74.468 369.459 75.3117C371.006 76.1555 372.303 77.2727 373.35 78.6633C374.397 80.0383 375.186 81.6086 375.717 83.3742C376.264 85.1399 376.538 86.9446 376.538 88.7883C376.538 90.3664 376.374 91.968 376.045 93.593C375.717 95.218 375.225 96.7961 374.569 98.3274C373.928 99.843 373.131 101.273 372.178 102.616C371.241 103.945 370.155 105.109 368.92 106.109C367.686 107.109 366.311 107.898 364.795 108.476C363.28 109.054 361.631 109.343 359.85 109.343C357.85 109.343 356.077 108.921 354.53 108.077C352.999 107.234 351.709 106.124 350.663 104.749C349.631 103.359 348.842 101.78 348.295 100.015C347.764 98.2492 347.499 96.4446 347.499 94.6008ZM353.1 92.3742C353.1 93.4367 353.178 94.5149 353.334 95.6086C353.506 96.7024 353.764 97.7571 354.108 98.7727C354.452 99.7883 354.874 100.741 355.374 101.632C355.889 102.507 356.491 103.273 357.178 103.929C357.881 104.585 358.663 105.101 359.522 105.476C360.397 105.851 361.358 106.038 362.405 106.038C363.545 106.038 364.545 105.796 365.405 105.312C366.28 104.812 367.03 104.155 367.655 103.343C368.295 102.53 368.819 101.601 369.225 100.554C369.647 99.5071 369.983 98.4289 370.233 97.3196C370.483 96.1946 370.655 95.0852 370.749 93.9914C370.858 92.8977 370.913 91.8899 370.913 90.968C370.913 89.8899 370.827 88.8117 370.655 87.7336C370.499 86.6399 370.249 85.593 369.905 84.593C369.561 83.5774 369.131 82.6321 368.616 81.7571C368.116 80.8664 367.514 80.1008 366.811 79.4602C366.124 78.8039 365.342 78.2883 364.467 77.9133C363.608 77.5383 362.655 77.3508 361.608 77.3508C360.467 77.3508 359.459 77.593 358.584 78.0774C357.725 78.5617 356.975 79.2102 356.334 80.0227C355.709 80.8352 355.186 81.7649 354.764 82.8117C354.358 83.8586 354.03 84.9367 353.78 86.0461C353.53 87.1555 353.35 88.2649 353.241 89.3742C353.147 90.468 353.1 91.468 353.1 92.3742ZM379.116 76.0617C380.272 75.8274 381.553 75.593 382.959 75.3586C384.381 75.1086 385.842 74.8899 387.342 74.7024C388.858 74.5149 390.381 74.3586 391.913 74.2336C393.444 74.1086 394.913 74.0461 396.319 74.0461C397.147 74.0461 398.038 74.0852 398.991 74.1633C399.959 74.2258 400.92 74.3586 401.874 74.5617C402.827 74.7492 403.741 75.0149 404.616 75.3586C405.491 75.6867 406.264 76.1242 406.936 76.6711C407.624 77.2024 408.17 77.8508 408.577 78.6164C408.983 79.3821 409.186 80.2805 409.186 81.3117C409.186 82.593 408.905 83.7414 408.342 84.7571C407.78 85.7571 407.053 86.6242 406.163 87.3586C405.272 88.0774 404.272 88.6711 403.163 89.1399C402.053 89.6086 400.952 89.9446 399.858 90.1477V90.2649C401.139 90.3274 402.405 90.5227 403.655 90.8508C404.92 91.1789 406.053 91.6633 407.053 92.3039C408.069 92.9446 408.889 93.7649 409.514 94.7649C410.139 95.7649 410.452 96.9758 410.452 98.3977C410.452 99.6477 410.249 100.78 409.842 101.796C409.452 102.796 408.905 103.687 408.202 104.468C407.499 105.249 406.678 105.929 405.741 106.507C404.803 107.07 403.788 107.538 402.694 107.913C401.6 108.273 400.459 108.538 399.272 108.71C398.1 108.882 396.928 108.968 395.756 108.968C394.678 108.968 393.624 108.89 392.592 108.734C391.561 108.577 390.592 108.366 389.686 108.101L385.374 108.687L384.999 108.663C385.202 105.991 385.374 103.359 385.514 100.765C385.67 98.1555 385.795 95.6477 385.889 93.2414C385.983 90.8196 386.045 88.5305 386.077 86.3742C386.124 84.218 386.147 82.2414 386.147 80.4446C386.147 79.8508 386.077 79.3664 385.936 78.9914C385.811 78.6164 385.624 78.3274 385.374 78.1242C385.124 77.9055 384.819 77.7571 384.459 77.6789C384.1 77.6008 383.702 77.5617 383.264 77.5617C382.764 77.5617 382.155 77.6008 381.436 77.6789C380.733 77.7571 380.03 77.8508 379.327 77.9602L379.116 76.0617ZM390.413 105.288C391.256 105.695 392.131 105.991 393.038 106.179C393.944 106.366 394.827 106.46 395.686 106.46C396.874 106.46 398.006 106.296 399.084 105.968C400.163 105.624 401.116 105.124 401.944 104.468C402.772 103.796 403.428 102.976 403.913 102.007C404.413 101.023 404.663 99.8899 404.663 98.6086C404.663 97.2336 404.358 96.1008 403.749 95.2102C403.155 94.3039 402.358 93.593 401.358 93.0774C400.374 92.5617 399.241 92.2024 397.959 91.9992C396.694 91.7961 395.389 91.6946 394.045 91.6946C393.545 91.6946 393.038 91.7102 392.522 91.7414C392.022 91.7571 391.522 91.7805 391.022 91.8117L390.413 105.288ZM391.655 76.5774C391.624 77.1867 391.592 77.9446 391.561 78.8508C391.53 79.7571 391.491 80.7805 391.444 81.9211C391.397 83.0617 391.342 84.2961 391.28 85.6242C391.233 86.9524 391.178 88.343 391.116 89.7961C392.663 89.7961 394.17 89.6711 395.639 89.4211C397.124 89.1555 398.444 88.7258 399.6 88.1321C400.756 87.5383 401.686 86.7571 402.389 85.7883C403.108 84.8039 403.467 83.5852 403.467 82.1321C403.467 80.9289 403.209 79.9524 402.694 79.2024C402.178 78.4367 401.514 77.843 400.702 77.4211C399.889 76.9992 398.991 76.7102 398.006 76.5539C397.022 76.3977 396.061 76.3196 395.124 76.3196C394.608 76.3196 394.045 76.343 393.436 76.3899C392.842 76.4211 392.249 76.4836 391.655 76.5774Z" fill="#D0C45C"/>
<path d="M112.398 82.9639C112.398 81.7295 112.195 80.6592 111.789 79.7529C111.383 78.8467 110.852 78.1045 110.195 77.5264C109.539 76.9482 108.797 76.5186 107.969 76.2373C107.141 75.9561 106.312 75.8154 105.484 75.8154C104.375 75.8154 103.437 75.9326 102.672 76.167C101.906 76.4014 101.281 76.7217 100.797 77.1279C100.328 77.5342 99.9844 78.0186 99.7656 78.5811C99.5625 79.1279 99.4609 79.7217 99.4609 80.3623C99.4609 81.1123 99.5937 81.8701 99.8594 82.6357C100.141 83.3857 100.547 84.1201 101.078 84.8389L100.984 85.0967C100.094 85.5342 99.1953 85.7529 98.2891 85.7529C97.7578 85.7529 97.2578 85.6748 96.7891 85.5186C96.3359 85.3467 95.9375 85.1045 95.5937 84.792C95.2656 84.4795 95 84.0967 94.7969 83.6436C94.6094 83.1904 94.5156 82.6826 94.5156 82.1201C94.5156 81.1982 94.7344 80.3311 95.1719 79.5186C95.625 78.7061 96.2187 77.9639 96.9531 77.292C97.6875 76.6201 98.5391 76.0186 99.5078 75.4873C100.477 74.9561 101.477 74.5107 102.508 74.1514C103.539 73.7764 104.57 73.4951 105.602 73.3076C106.648 73.1045 107.617 73.0029 108.508 73.0029C110.148 73.0029 111.547 73.2217 112.703 73.6592C113.875 74.0967 114.82 74.7373 115.539 75.5811C116.273 76.4092 116.805 77.417 117.133 78.6045C117.477 79.792 117.648 81.1357 117.648 82.6357C117.648 83.667 117.602 84.7998 117.508 86.0342C117.43 87.2686 117.336 88.5654 117.227 89.9248C117.117 91.2686 117.016 92.6592 116.922 94.0967C116.844 95.5342 116.805 96.9639 116.805 98.3857C116.805 100.636 117.219 102.331 118.047 103.472C118.891 104.597 119.992 105.159 121.352 105.159C122.555 105.159 123.898 104.714 125.383 103.823L126.062 104.831C125.016 105.878 123.875 106.675 122.641 107.222C121.406 107.769 120.109 108.042 118.75 108.042C117.734 108.042 116.797 107.87 115.937 107.526C115.078 107.183 114.336 106.675 113.711 106.003C113.086 105.315 112.602 104.456 112.258 103.425C111.914 102.394 111.742 101.198 111.742 99.8389C111.742 99.4326 111.75 99.0264 111.766 98.6201C111.797 98.2139 111.852 97.7842 111.93 97.3311H111.789C111.117 98.6748 110.336 100.003 109.445 101.315C108.57 102.612 107.602 103.776 106.539 104.808C105.492 105.823 104.367 106.644 103.164 107.269C101.977 107.909 100.727 108.229 99.4141 108.229C98.3359 108.229 97.3516 108.042 96.4609 107.667C95.5703 107.292 94.8047 106.776 94.1641 106.12C93.5391 105.464 93.0469 104.69 92.6875 103.8C92.3437 102.894 92.1719 101.909 92.1719 100.847C92.1719 99.4717 92.4219 98.2217 92.9219 97.0967C93.4375 95.9717 94.1406 94.9639 95.0312 94.0732C95.9375 93.1826 97.0156 92.417 98.2656 91.7764C99.5156 91.1201 100.875 90.5811 102.344 90.1592C103.812 89.7217 105.367 89.4014 107.008 89.1982C108.648 88.9795 110.32 88.8701 112.023 88.8701C112.133 87.8857 112.219 86.9326 112.281 86.0107C112.359 85.0889 112.398 84.0732 112.398 82.9639ZM98.0078 99.0654C98.0078 99.6748 98.0703 100.261 98.1953 100.823C98.3359 101.37 98.5469 101.854 98.8281 102.276C99.125 102.698 99.4922 103.034 99.9297 103.284C100.383 103.519 100.922 103.636 101.547 103.636C102.25 103.636 102.977 103.472 103.727 103.144C104.477 102.815 105.211 102.362 105.93 101.784C106.664 101.206 107.359 100.519 108.016 99.7217C108.687 98.9092 109.289 98.0264 109.82 97.0732C110.352 96.1201 110.789 95.1201 111.133 94.0732C111.492 93.0107 111.727 91.9248 111.836 90.8154C110.68 90.8467 109.531 90.9248 108.391 91.0498C107.25 91.1592 106.164 91.3389 105.133 91.5889C104.117 91.8389 103.172 92.167 102.297 92.5732C101.422 92.9795 100.664 93.4873 100.023 94.0967C99.3984 94.6904 98.9062 95.4014 98.5469 96.2295C98.1875 97.042 98.0078 97.9873 98.0078 99.0654ZM126.18 125.034C126.055 121.69 125.875 118.378 125.641 115.097C125.406 111.831 125.133 108.542 124.82 105.229C124.82 104.948 124.961 104.808 125.242 104.808C125.648 104.808 126.07 104.808 126.508 104.808C126.945 104.792 127.391 104.784 127.844 104.784C128.672 102.472 129.555 100.112 130.492 97.7061C131.445 95.2842 132.469 92.8154 133.562 90.2998C134.672 87.7842 135.875 85.2139 137.172 82.5889C138.484 79.9639 139.922 77.2686 141.484 74.5029C141.672 74.1748 141.883 73.917 142.117 73.7295C142.352 73.5264 142.594 73.3779 142.844 73.2842C143.094 73.1748 143.344 73.1045 143.594 73.0732C143.859 73.042 144.102 73.0264 144.32 73.0264C144.805 73.0264 145.281 73.0732 145.75 73.167C146.219 73.2451 146.664 73.3857 147.086 73.5889C147.523 76.2295 147.937 78.6514 148.328 80.8545C148.719 83.0576 149.102 85.1045 149.477 86.9951C149.852 88.8701 150.211 90.6123 150.555 92.2217C150.898 93.8311 151.25 95.3545 151.609 96.792C151.969 98.2139 152.328 99.5811 152.687 100.894C153.047 102.19 153.422 103.479 153.812 104.761C154.609 104.776 155.352 104.792 156.039 104.808C156.727 104.823 157.336 104.847 157.867 104.878C158.148 104.894 158.344 104.94 158.453 105.019C158.562 105.097 158.617 105.222 158.617 105.394C158.617 105.425 158.609 105.472 158.594 105.534C158.594 105.581 158.586 105.644 158.57 105.722C158.023 108.987 157.508 112.229 157.023 115.448C156.555 118.667 156.117 121.925 155.711 125.222L153.836 125.151C153.805 122.12 153.727 119.112 153.602 116.128C153.492 113.159 153.375 110.159 153.25 107.128C152.437 107.112 151.672 107.097 150.953 107.081C150.234 107.081 149.523 107.073 148.82 107.058C148.117 107.058 147.406 107.058 146.687 107.058C145.969 107.058 145.211 107.058 144.414 107.058H137.195C136.383 107.058 135.633 107.058 134.945 107.058C134.273 107.058 133.633 107.058 133.023 107.058C132.43 107.073 131.867 107.081 131.336 107.081C130.805 107.097 130.289 107.112 129.789 107.128C129.617 108.534 129.453 109.995 129.297 111.511C129.141 113.026 128.992 114.558 128.852 116.104C128.711 117.651 128.57 119.183 128.43 120.698C128.305 122.229 128.18 123.698 128.055 125.104L126.18 125.034ZM144.836 104.69C145.43 104.69 146.016 104.69 146.594 104.69C147.187 104.69 147.773 104.698 148.352 104.714C147.805 102.729 147.289 100.714 146.805 98.667C146.32 96.6045 145.852 94.4717 145.398 92.2686C144.961 90.0498 144.531 87.7295 144.109 85.3076C143.703 82.8857 143.289 80.2998 142.867 77.5498H142.703C140.109 82.2529 137.844 86.8936 135.906 91.4717C133.984 96.0342 132.359 100.456 131.031 104.737C132.594 104.737 134.102 104.729 135.555 104.714C137.023 104.698 138.305 104.69 139.398 104.69H144.836Z" fill="#5D4F79"/>
<path d="M92.1472 26.5627C96.241 26.5627 100.022 26.9377 103.491 27.6877C106.991 28.4377 110.007 29.3596 112.538 30.4533C115.069 31.5471 117.053 32.719 118.491 33.969C119.928 35.219 120.647 36.3596 120.647 37.3908C120.647 39.5471 120.569 42.344 120.413 45.7815C120.257 49.219 120.053 53.3752 119.803 58.2502L115.725 58.1096C115.757 57.6721 115.772 57.2658 115.772 56.8908C115.803 56.4846 115.819 56.0627 115.819 55.6252C115.788 53.469 115.538 51.4221 115.069 49.4846C114.632 47.5158 113.819 45.6408 112.632 43.8596C111.382 42.0783 109.882 40.5002 108.132 39.1252C106.413 37.7502 104.522 36.594 102.46 35.6565C100.397 34.719 98.1941 34.0158 95.8503 33.5471C93.5066 33.0471 91.116 32.7971 88.6785 32.7971C84.491 32.7971 80.6785 33.4533 77.241 34.7658C73.8347 36.0471 70.7878 37.844 68.1003 40.1565C65.4128 42.4377 63.0691 45.1565 61.0691 48.3127C59.1003 51.4377 57.4597 54.844 56.1472 58.5315C54.866 62.219 53.8972 66.094 53.241 70.1565C52.616 74.219 52.3035 78.3283 52.3035 82.4846C52.3035 87.3908 52.7097 92.0158 53.5222 96.3596C54.3347 100.703 55.491 104.703 56.991 108.36C58.491 112.016 60.3035 115.297 62.4285 118.203C64.5535 121.11 66.9285 123.578 69.5535 125.61C72.2097 127.61 75.0691 129.141 78.1316 130.203C81.2253 131.266 84.4753 131.797 87.8816 131.797C90.2566 131.797 92.6941 131.547 95.1941 131.047C97.7253 130.516 100.288 129.703 102.882 128.61C105.475 127.485 108.085 126.078 110.71 124.391C113.366 122.672 116.007 120.625 118.632 118.25C118.882 118.375 119.163 118.531 119.475 118.719C119.819 118.906 120.132 119.125 120.413 119.375C120.694 119.594 120.928 119.844 121.116 120.125C121.335 120.406 121.444 120.688 121.444 120.969C121.444 121.156 121.319 121.422 121.069 121.766C118.007 125.141 114.913 127.969 111.788 130.25C108.663 132.531 105.522 134.375 102.366 135.781C99.2097 137.188 96.0222 138.188 92.8035 138.781C89.616 139.406 86.4285 139.719 83.241 139.719C79.0222 139.719 74.991 139.125 71.1472 137.938C67.3347 136.781 63.7878 135.11 60.5066 132.922C57.2253 130.735 54.2566 128.094 51.6003 125C48.9441 121.875 46.6785 118.375 44.8035 114.5C42.9285 110.625 41.4753 106.422 40.4441 101.891C39.4441 97.3283 38.9441 92.5158 38.9441 87.4533C38.9441 82.5783 39.4285 77.6877 40.3972 72.7815C41.3972 67.844 42.866 63.1252 44.8035 58.6252C46.7722 54.1252 49.2253 49.9221 52.1628 46.0158C55.1316 42.1096 58.5847 38.719 62.5222 35.844C66.4597 32.9377 70.8972 30.6721 75.8347 29.0471C80.7722 27.3908 86.2097 26.5627 92.1472 26.5627Z" fill="#D0C45C"/>
<path d="M90.5464 28.8552C94.6401 28.8552 98.4214 29.2302 101.89 29.9802C105.39 30.7302 108.406 31.652 110.937 32.7458C113.468 33.8395 115.453 35.0114 116.89 36.2614C118.328 37.5114 119.046 38.652 119.046 39.6833C119.046 41.8395 118.968 44.6364 118.812 48.0739C118.656 51.5114 118.453 55.6677 118.203 60.5427L114.125 60.402C114.156 59.9645 114.171 59.5583 114.171 59.1833C114.203 58.777 114.218 58.3552 114.218 57.9177C114.187 55.7614 113.937 53.7145 113.468 51.777C113.031 49.8083 112.218 47.9333 111.031 46.152C109.781 44.3708 108.281 42.7927 106.531 41.4177C104.812 40.0427 102.921 38.8864 100.859 37.9489C98.7964 37.0114 96.5933 36.3083 94.2495 35.8395C91.9058 35.3395 89.5151 35.0895 87.0776 35.0895C82.8901 35.0895 79.0776 35.7458 75.6401 37.0583C72.2339 38.3395 69.187 40.1364 66.4995 42.4489C63.812 44.7302 61.4683 47.4489 59.4683 50.6052C57.4995 53.7302 55.8589 57.1364 54.5464 60.8239C53.2651 64.5114 52.2964 68.3864 51.6401 72.4489C51.0151 76.5114 50.7026 80.6208 50.7026 84.777C50.7026 89.6833 51.1089 94.3083 51.9214 98.652C52.7339 102.996 53.8901 106.996 55.3901 110.652C56.8901 114.308 58.7026 117.59 60.8276 120.496C62.9526 123.402 65.3276 125.871 67.9526 127.902C70.6089 129.902 73.4683 131.433 76.5308 132.496C79.6245 133.558 82.8745 134.09 86.2808 134.09C88.6558 134.09 91.0933 133.84 93.5933 133.34C96.1245 132.808 98.687 131.996 101.281 130.902C103.875 129.777 106.484 128.371 109.109 126.683C111.765 124.965 114.406 122.918 117.031 120.543C117.281 120.668 117.562 120.824 117.875 121.011C118.218 121.199 118.531 121.418 118.812 121.668C119.093 121.886 119.328 122.136 119.515 122.418C119.734 122.699 119.843 122.98 119.843 123.261C119.843 123.449 119.718 123.715 119.468 124.058C116.406 127.433 113.312 130.261 110.187 132.543C107.062 134.824 103.921 136.668 100.765 138.074C97.6089 139.48 94.4214 140.48 91.2026 141.074C88.0151 141.699 84.8276 142.011 81.6401 142.011C77.4214 142.011 73.3901 141.418 69.5464 140.23C65.7339 139.074 62.187 137.402 58.9058 135.215C55.6245 133.027 52.6558 130.386 49.9995 127.293C47.3433 124.168 45.0776 120.668 43.2026 116.793C41.3276 112.918 39.8745 108.715 38.8433 104.183C37.8433 99.6208 37.3433 94.8083 37.3433 89.7458C37.3433 84.8708 37.8276 79.9802 38.7964 75.0739C39.7964 70.1364 41.2651 65.4177 43.2026 60.9177C45.1714 56.4177 47.6245 52.2145 50.562 48.3083C53.5308 44.402 56.9839 41.0114 60.9214 38.1364C64.8589 35.2302 69.2964 32.9645 74.2339 31.3395C79.1714 29.6833 84.6089 28.8552 90.5464 28.8552Z" fill="#5D4F79"/>
</g>
<defs>
<clipPath id="clip0_1267_128">
<rect width="410.428" height="139.786" fill="white"/>
</clipPath>
</defs>
</svg>
