<svg width="435" height="467" viewBox="0 0 435 467" fill="none" xmlns="http://www.w3.org/2000/svg">
<path d="M320.73 405.06C305.087 404.944 289.512 402.98 274.33 399.21C221.9 386.56 167.91 354.47 122.33 308.85C76.75 263.23 44.62 209.23 31.97 156.85C18.65 101.75 28.15 54.61 58.69 24.07L67.41 15.35C75.3216 7.45424 86.0426 3.01978 97.22 3.01978C108.398 3.01978 119.118 7.45424 127.03 15.35L177.14 65.45C185.041 73.359 189.479 84.0809 189.479 95.26C189.479 106.439 185.041 117.161 177.14 125.07L147.54 154.66C161.73 179.56 181.03 204.48 203.84 227.29C226.65 250.1 251.59 269.41 276.48 283.6L306.07 254C309.984 250.084 314.631 246.978 319.746 244.859C324.861 242.74 330.344 241.649 335.88 241.649C341.417 241.649 346.899 242.74 352.014 244.859C357.129 246.978 361.776 250.084 365.69 254L415.79 304.1C423.693 312.006 428.132 322.727 428.132 333.905C428.132 345.083 423.693 355.804 415.79 363.71L407.06 372.43C385.53 394 355.73 405.06 320.73 405.06ZM97.22 33C95.6234 32.9921 94.0412 33.3029 92.5662 33.9142C91.0912 34.5255 89.753 35.425 88.63 36.56L79.9 45.28C57.03 68.15 50.35 105.28 61.09 149.77C72.46 196.9 101.73 245.87 143.5 287.63C185.27 329.39 234.23 358.63 281.37 370.04C325.87 380.78 362.98 374.1 385.85 351.23L394.57 342.51C396.848 340.23 398.128 337.138 398.128 333.915C398.128 330.692 396.848 327.6 394.57 325.32L344.48 275.22C342.2 272.942 339.108 271.662 335.885 271.662C332.662 271.662 329.57 272.942 327.29 275.22L289.78 312.73C287.529 314.982 284.62 316.459 281.474 316.948C278.328 317.437 275.108 316.913 272.28 315.45C241.53 299.55 210.53 276.4 182.63 248.5C154.73 220.6 131.63 189.62 115.69 158.87C114.226 156.043 113.7 152.823 114.187 149.677C114.674 146.531 116.15 143.622 118.4 141.37L155.92 103.86C158.198 101.58 159.478 98.4884 159.478 95.265C159.478 92.0416 158.198 88.9502 155.92 86.67L105.82 36.56C104.694 35.4269 103.353 34.5288 101.877 33.9177C100.401 33.3066 98.8178 32.9946 97.22 33Z" fill="black"/>
<path d="M336.75 224.73C332.772 224.73 328.957 223.15 326.143 220.337C323.33 217.524 321.75 213.708 321.75 209.73C321.721 183.415 311.255 158.187 292.649 139.578C274.042 120.97 248.815 110.502 222.5 110.47C218.522 110.47 214.707 108.89 211.893 106.077C209.08 103.264 207.5 99.4482 207.5 95.47C207.5 91.4918 209.08 87.6764 211.893 84.8634C214.707 82.0504 218.522 80.47 222.5 80.47C293.77 80.47 351.75 138.47 351.75 209.73C351.75 213.708 350.17 217.524 347.357 220.337C344.544 223.15 340.728 224.73 336.75 224.73Z" fill="black"/>
<path d="M400.15 224.73C396.172 224.73 392.357 223.15 389.543 220.337C386.73 217.524 385.15 213.708 385.15 209.73C385.15 120.04 312.15 47.07 222.5 47.07C218.522 47.07 214.707 45.4897 211.893 42.6766C209.08 39.8636 207.5 36.0482 207.5 32.07C207.5 28.0918 209.08 24.2764 211.893 21.4634C214.707 18.6504 218.522 17.07 222.5 17.07C328.73 17.07 415.15 103.5 415.15 209.73C415.15 213.708 413.57 217.524 410.757 220.337C407.944 223.15 404.128 224.73 400.15 224.73Z" fill="black"/>
</svg>
