<svg width="138" height="138" viewBox="0 0 138 138" fill="none" xmlns="http://www.w3.org/2000/svg">
<path fill-rule="evenodd" clip-rule="evenodd" d="M111.645 86.3342C110.673 86.4437 109.767 86.8803 109.076 87.5724L101.344 95.3046L97.9241 91.8849C97.1153 91.0763 96.0186 90.6221 94.875 90.6221C93.7314 90.6221 92.6346 91.0763 91.8259 91.8849C91.0174 92.6936 90.5632 93.7904 90.5632 94.934C90.5632 96.0775 91.0174 97.1743 91.8259 97.983L98.2947 104.452C99.1035 105.26 100.2 105.714 101.344 105.714C102.487 105.714 103.584 105.26 104.393 104.452L115.174 93.6705C115.983 92.8618 116.437 91.765 116.437 90.6215C116.437 89.4779 115.983 88.3811 115.174 87.5724C114.716 87.1143 114.162 86.7652 113.551 86.5509C112.94 86.3365 112.288 86.2624 111.645 86.3342Z" fill="black"/>
<path fill-rule="evenodd" clip-rule="evenodd" d="M60.375 73.3715C59.2313 73.3715 58.1343 73.8257 57.3256 74.6345C56.5168 75.4432 56.0625 76.5402 56.0625 77.684C56.0625 78.8277 56.5168 79.9245 57.3256 80.7333C58.1343 81.542 59.2313 81.9965 60.375 81.9965H73.3125C74.4562 81.9965 75.5532 81.542 76.3619 80.7333C77.1707 79.9245 77.625 78.8277 77.625 77.684C77.625 76.5402 77.1707 75.4432 76.3619 74.6345C75.5532 73.8257 74.4562 73.3715 73.3125 73.3715H60.375Z" fill="black"/>
<path fill-rule="evenodd" clip-rule="evenodd" d="M30.1875 60.434C29.0438 60.4341 27.947 60.8884 27.1382 61.6971C26.3295 62.5059 25.8751 63.6027 25.875 64.7465V81.9965C25.8751 83.1402 26.3295 84.2369 27.1382 85.0457C27.947 85.8544 29.0438 86.3088 30.1875 86.309H47.4375C48.5812 86.3088 49.678 85.8544 50.4868 85.0457C51.2955 84.2369 51.7499 83.1402 51.75 81.9965V64.7465C51.7499 63.6027 51.2955 62.5059 50.4868 61.6971C49.678 60.8884 48.5812 60.4341 47.4375 60.434H30.1875ZM34.5 69.059H43.125V77.684H34.5V69.059Z" fill="black"/>
<path fill-rule="evenodd" clip-rule="evenodd" d="M17.25 21.6215C12.5464 21.6215 8.625 25.5428 8.625 30.2465V94.934C8.625 99.6376 12.5464 103.559 17.25 103.559H79.1158C82.6857 113.586 92.2823 120.809 103.5 120.809C117.739 120.809 129.375 109.173 129.375 94.934C129.375 87.3095 126.036 80.4327 120.75 75.6877V30.2465C120.75 25.5428 116.829 21.6215 112.125 21.6215H17.25ZM17.25 30.2465H112.125V38.8715H17.25V30.2465ZM17.25 47.4965H112.125V70.5498C111.811 70.4377 111.493 70.3299 111.173 70.2299C108.746 69.4713 106.17 69.0591 103.5 69.0591C89.7057 69.0591 78.3546 79.9752 77.6587 93.6033C77.6371 94.0429 77.6242 94.4891 77.6242 94.9341H17.2492L17.25 47.4965ZM60.375 60.434C59.2313 60.434 58.1343 60.8882 57.3256 61.697C56.5168 62.5057 56.0625 63.6027 56.0625 64.7465C56.0625 65.8902 56.5168 66.987 57.3256 67.7958C58.1343 68.6045 59.2313 69.059 60.375 69.059H81.9375C83.0812 69.059 84.1782 68.6045 84.9869 67.7958C85.7957 66.987 86.25 65.8902 86.25 64.7465C86.25 63.6027 85.7957 62.5057 84.9869 61.697C84.1782 60.8882 83.0812 60.434 81.9375 60.434H60.375ZM103.5 77.684C113.078 77.684 120.75 85.356 120.75 94.934C120.75 104.512 113.078 112.184 103.5 112.184C95.3047 112.184 88.5057 106.565 86.7133 98.9432C86.6875 98.5614 86.6111 98.1847 86.486 97.823C86.473 97.7385 86.4558 97.6553 86.4429 97.5703C86.3997 97.284 86.3713 96.9939 86.3419 96.7028C86.2833 96.1204 86.2492 95.5326 86.2492 94.934C86.2492 94.6347 86.2578 94.3365 86.2751 94.0411C86.3053 93.4503 86.3566 92.8707 86.4437 92.2976C86.4873 92.0113 86.5382 91.7285 86.5955 91.4469C88.195 83.5619 95.1193 77.684 103.5 77.684Z" fill="black"/>
</svg>
