<svg width="123" height="123" viewBox="0 0 123 123" fill="none" xmlns="http://www.w3.org/2000/svg">
<path fill-rule="evenodd" clip-rule="evenodd" d="M88.4063 76.9276C87.3868 76.9276 86.4092 77.3325 85.6884 78.0533C84.9675 78.7741 84.5625 79.7519 84.5625 80.7713V94.5547L83.4364 93.4286C82.7157 92.7078 81.7381 92.3027 80.7188 92.3026C79.6994 92.3027 78.7218 92.7078 78.0011 93.4286C77.2805 94.1495 76.8756 95.127 76.8756 96.1463C76.8756 97.1656 77.2805 98.1431 78.0011 98.864L85.6886 106.551C85.7473 106.601 85.8074 106.648 85.8689 106.694C85.9741 106.788 86.0843 106.875 86.1991 106.957C86.3102 107.036 86.4254 107.108 86.5442 107.175C86.6754 107.248 86.8108 107.313 86.9496 107.37C87.0797 107.422 87.2125 107.467 87.3475 107.505C87.4808 107.545 87.6161 107.578 87.7529 107.603C87.9044 107.629 88.0573 107.647 88.2108 107.655C88.2757 107.665 88.3409 107.672 88.4062 107.678C88.4714 107.672 88.5366 107.665 88.6015 107.655C88.755 107.647 88.908 107.629 89.0594 107.603C89.1962 107.578 89.3315 107.545 89.4648 107.505C89.5998 107.467 89.7326 107.422 89.8627 107.37C90.0015 107.313 90.1369 107.248 90.2681 107.175C90.3869 107.108 90.5021 107.036 90.6132 106.957C90.728 106.875 90.8382 106.788 90.9434 106.694C91.0049 106.648 91.065 106.601 91.1237 106.551L98.8112 98.864C99.5319 98.1431 99.9367 97.1656 99.9367 96.1463C99.9367 95.127 99.5319 94.1495 98.8112 93.4286C98.0904 92.708 97.1128 92.3031 96.0935 92.3031C95.0743 92.3031 94.0967 92.708 93.3759 93.4286L92.25 94.5547V80.7713C92.25 79.7519 91.845 78.7741 91.1242 78.0533C90.4033 77.3325 89.4257 76.9276 88.4063 76.9276Z" fill="black"/>
<path fill-rule="evenodd" clip-rule="evenodd" d="M46.125 3.84375C35.9843 3.84375 26.7565 6.12504 19.7668 10.0823C12.777 14.0396 7.6875 20.0304 7.6875 27.2741V95.7109C7.6875 102.956 12.777 108.957 19.7668 112.918C26.7565 116.879 35.9836 119.156 46.125 119.156C55.9114 119.156 64.8243 117.032 71.71 113.316C76.3043 116.967 82.1074 119.156 88.4062 119.156C103.221 119.156 115.312 107.064 115.312 92.25C115.312 77.4356 103.221 65.3438 88.4062 65.3438C87.1002 65.3438 85.8198 65.4398 84.5625 65.6216V27.2742C84.5625 20.0306 79.473 14.0397 72.4832 10.0825C65.4935 6.12504 56.2657 3.84375 46.125 3.84375ZM46.125 11.5312C55.0898 11.5312 63.1614 13.6401 68.692 16.7714C74.2227 19.9026 76.875 23.6988 76.875 27.2741C76.875 30.8525 74.2227 34.6587 68.692 37.7919C63.1614 40.9251 55.0894 43.032 46.125 43.032C37.1606 43.032 29.0886 40.9251 23.558 37.7919C18.0273 34.6587 15.375 30.8525 15.375 27.2741C15.375 23.6988 18.0273 19.9026 23.558 16.7714C29.0886 13.6401 37.1602 11.5312 46.125 11.5312ZM15.375 41.493C16.7212 42.5842 18.1909 43.5881 19.7668 44.4809C26.7566 48.4407 35.9838 50.7195 46.125 50.7195C56.2662 50.7195 65.4934 48.4407 72.4832 44.4809C74.0591 43.5881 75.5288 42.5842 76.875 41.493V50.0889C76.875 53.6673 74.2227 57.4659 68.692 60.5991C63.1614 63.7323 55.0894 65.8467 46.125 65.8467C37.1606 65.8467 29.0886 63.7323 23.558 60.5991C18.0273 57.4659 15.375 53.6673 15.375 50.0889V41.493ZM15.375 64.3002C16.7212 65.3908 18.1909 66.3954 19.7668 67.2881C26.7566 71.248 35.9838 73.5342 46.125 73.5342C56.2662 73.5342 65.4934 71.248 72.4832 67.2881C74.0591 66.3954 75.5288 65.3908 76.875 64.3002V67.9488C69.5562 71.4438 64.05 78.155 62.1907 86.2291C57.5346 87.7488 52.024 88.654 46.125 88.654C37.1604 88.654 29.0886 86.5462 23.558 83.4139C18.0273 80.2815 15.375 76.482 15.375 72.9036V64.3002ZM88.4062 73.0312C99.066 73.0312 107.625 81.5903 107.625 92.25C107.625 102.91 99.066 111.469 88.4062 111.469C77.7465 111.469 69.1875 102.91 69.1875 92.25C69.1875 91.4278 69.2386 90.6194 69.3378 89.8251C69.3717 89.6567 69.3943 89.4861 69.4054 89.3146C70.4481 82.4387 75.1095 76.7927 81.3946 74.345C81.7833 74.2704 82.1581 74.1362 82.5057 73.9471C84.362 73.3545 86.3463 73.0312 88.4062 73.0312ZM15.375 87.115C16.7212 88.2055 18.1909 89.2103 19.7668 90.1029C26.7566 94.0617 35.9841 96.3415 46.125 96.3415C51.6265 96.3415 56.8468 95.6585 61.5976 94.4121C61.9834 99.2116 63.6342 103.664 66.2221 107.43C60.8791 109.869 53.8546 111.469 46.125 111.469C37.1609 111.469 29.0886 109.363 23.558 106.229C18.0273 103.095 15.375 99.2893 15.375 95.7109V87.115Z" fill="black"/>
</svg>
