<svg width="163" height="163" viewBox="0 0 163 163" fill="none" xmlns="http://www.w3.org/2000/svg">
<path fill-rule="evenodd" clip-rule="evenodd" d="M134.984 10.1875C125.199 10.1875 117.156 18.2298 117.156 28.0156C117.156 31.0706 117.949 33.9585 119.325 36.482L110.083 45.7144C102.235 39.4315 92.2998 35.6563 81.5 35.6562C70.7002 35.6563 60.7646 39.4315 52.9174 45.7144L43.7048 36.5019C46.5404 31.2209 46.6895 24.6233 43.4959 19.0916C38.5968 10.6062 27.597 7.65626 19.1117 12.5553C10.6262 17.4544 7.68622 28.4542 12.5853 36.9396C17.3988 45.2769 28.0911 48.2599 36.5119 43.7147L45.7145 52.9173C39.4315 60.7646 35.6563 70.7002 35.6563 81.5C35.6563 92.2998 39.4316 102.235 45.7146 110.083L36.4821 119.325L36.4719 119.326C33.9484 117.95 31.0705 117.157 28.0155 117.157C18.2297 117.157 10.1874 125.199 10.1874 134.985C10.1874 144.771 18.2296 152.813 28.0155 152.813C37.8013 152.813 45.8436 144.771 45.8437 134.985C45.8436 131.93 45.0507 129.042 43.6748 126.519L52.7977 117.406C53.389 118.069 54.1436 118.567 54.9865 118.848C62.4806 124.187 71.6283 127.345 81.4999 127.345C91.7125 127.345 101.156 123.98 108.789 118.301C109.232 118.051 109.634 117.736 109.983 117.366C110.014 117.341 110.048 117.311 110.082 117.286L119.324 126.528C117.948 129.051 117.156 131.929 117.155 134.984C117.156 144.77 125.198 152.812 134.984 152.812C144.77 152.812 152.812 144.77 152.812 134.984C152.812 125.198 144.77 117.156 134.984 117.156C131.929 117.156 129.051 117.949 126.527 119.325L126.517 119.326L117.285 110.083C123.568 102.236 127.343 92.3005 127.343 81.5007C127.343 70.7009 123.568 60.7653 117.285 52.918L126.527 43.6756C129.051 45.0515 131.929 45.8444 134.983 45.8444C144.769 45.8444 152.812 37.8022 152.812 28.0163C152.812 18.2305 144.77 10.1875 134.984 10.1875ZM27.8465 20.3352C30.5577 20.2516 33.1958 21.6297 34.6713 24.1854C36.8175 27.9027 35.5831 32.5052 31.8658 34.6514C28.1485 36.7976 23.5559 35.5632 21.4097 31.8459C19.2635 28.1286 20.4879 23.526 24.2052 21.3798C25.3669 20.7091 26.6141 20.3732 27.8465 20.3352ZM134.984 20.375C139.264 20.375 142.625 23.7355 142.625 28.0156C142.625 32.2957 139.265 35.6562 134.984 35.6562C130.704 35.6562 127.344 32.2957 127.344 28.0156C127.344 23.7355 130.704 20.375 134.984 20.375ZM81.5 45.8437C101.253 45.8437 117.156 61.7472 117.156 81.5C117.156 90.5406 113.819 98.7665 108.312 105.039C105.205 99.3796 100.359 94.8073 94.503 92.0456C98.9968 88.298 101.875 82.6693 101.875 76.4062C101.875 65.2138 92.6924 56.0312 81.5 56.0312C70.3076 56.0312 61.125 65.2138 61.125 76.4062C61.125 82.6692 64.0032 88.2981 68.497 92.0457C62.6422 94.8086 57.7948 99.3785 54.6882 105.039C49.1809 98.7665 45.8437 90.5406 45.8437 81.5C45.8438 61.7472 61.7473 45.8437 81.5 45.8437ZM81.5 66.2187C87.1868 66.2187 91.6875 70.7195 91.6875 76.4062C91.6875 82.093 87.1868 86.5937 81.5 86.5937C75.8133 86.5937 71.3125 82.0929 71.3125 76.4062C71.3125 70.7195 75.8132 66.2187 81.5 66.2187ZM81.5001 99.3281C90.0104 99.3281 97.2362 104.495 100.303 111.834C94.8504 115.212 88.4118 117.156 81.5001 117.156C74.5884 117.156 68.1495 115.212 62.6969 111.834C65.7635 104.495 72.9909 99.3281 81.5001 99.3281ZM28.0156 127.344C32.2957 127.344 35.6563 130.704 35.6563 134.984C35.6563 139.264 32.2957 142.625 28.0156 142.625C23.7355 142.625 20.375 139.264 20.375 134.984C20.375 130.704 23.7355 127.344 28.0156 127.344ZM134.984 127.344C139.264 127.344 142.625 130.704 142.625 134.984C142.625 139.264 139.264 142.625 134.984 142.625C130.704 142.625 127.344 139.264 127.344 134.984C127.344 130.704 130.704 127.344 134.984 127.344Z" fill="black"/>
</svg>
