<svg width="107" height="107" viewBox="0 0 107 107" fill="none" xmlns="http://www.w3.org/2000/svg">
<path fill-rule="evenodd" clip-rule="evenodd" d="M59.7042 33.0914C58.9681 33.1303 58.2656 33.4113 57.7058 33.8909C57.1459 34.3704 56.7602 35.0215 56.6086 35.7428C56.427 36.6106 56.5974 37.5149 57.0823 38.2571C57.5673 38.9992 58.3272 39.5184 59.1948 39.7005C64.6547 40.8508 68.0906 46.1267 66.9403 51.5865C66.7586 52.4542 66.929 53.3586 67.414 54.1007C67.899 54.8429 68.6588 55.3621 69.5265 55.5441C70.3933 55.7259 71.2969 55.5564 72.0388 55.0728C72.7808 54.5891 73.3006 53.8309 73.4841 52.9645C75.3796 43.9681 69.5692 35.052 60.5728 33.1567C60.2874 33.0971 59.9953 33.0751 59.7042 33.0914Z" fill="black"/>
<path fill-rule="evenodd" clip-rule="evenodd" d="M62.2839 20.0168C61.582 20.0928 60.9222 20.389 60.399 20.863C59.8758 21.3369 59.516 21.9643 59.3712 22.6552C59.1893 23.5221 59.3588 24.4256 59.8425 25.1675C60.3261 25.9095 61.0844 26.4294 61.9508 26.6129C74.6388 29.2861 82.7012 41.6546 80.028 54.3425C79.9371 54.7726 79.9318 55.2164 80.0127 55.6485C80.0935 56.0807 80.2587 56.4927 80.4989 56.8609C80.7392 57.2291 81.0496 57.5463 81.4126 57.7944C81.7755 58.0425 82.1838 58.2166 82.6141 58.3067C83.4819 58.4883 84.3862 58.318 85.1284 57.833C85.8705 57.348 86.3897 56.5881 86.5718 55.7205C89.9901 39.496 79.5534 23.4873 63.3288 20.0691C62.9854 19.997 62.6328 19.9793 62.2839 20.0168Z" fill="black"/>
<path fill-rule="evenodd" clip-rule="evenodd" d="M64.7786 6.96835C64.1293 7.0911 63.5309 7.40351 63.059 7.86613C62.587 8.32875 62.2628 8.92081 62.1271 9.5676C61.9453 10.4344 62.1148 11.3379 62.5984 12.0799C63.0821 12.8219 63.8403 13.3417 64.7068 13.5252C84.6229 17.7213 97.3116 37.1824 93.1156 57.0985C93.0247 57.5286 93.0195 57.9724 93.1004 58.4045C93.1812 58.8367 93.3464 59.2487 93.5866 59.6169C93.8268 59.9851 94.1373 60.3023 94.5002 60.5504C94.8632 60.7985 95.2715 60.9725 95.7018 61.0627C96.5695 61.2443 97.4739 61.0739 98.2161 60.589C98.9582 60.104 99.4774 59.3441 99.6594 58.4765C104.601 35.0239 89.5374 11.9226 66.0848 6.98141C65.6545 6.89113 65.2107 6.8869 64.7786 6.96835Z" fill="black"/>
<path fill-rule="evenodd" clip-rule="evenodd" d="M23.3409 6.72664C20.0476 6.66712 16.9821 8.17495 15.1448 11.2198C4.14517 29.4496 3.80946 52.3421 14.5375 70.9828C14.5397 70.9895 14.5419 70.9962 14.5442 71.0029C25.3671 89.5919 45.4069 100.734 66.7315 100.346C70.7951 100.272 73.9249 97.8062 75.3325 94.2132L80.1391 81.9485C81.8604 77.5548 80.5478 72.5137 76.8999 69.5204L68.2727 62.4476C63.8338 58.8053 57.0392 60.025 54.1402 64.9814L50.9074 70.4999C45.4069 67.6277 40.4926 63.5283 37.2321 57.9087V57.902C33.8228 51.998 32.7817 45.3734 33.2287 38.8975L39.348 39.2893C45.0635 39.6565 49.7533 34.4632 48.8111 28.814L46.9825 17.8488C46.2064 13.1955 42.5035 9.54472 37.8394 8.83638L24.7648 6.85103C24.288 6.77847 23.8114 6.735 23.3409 6.72664ZM23.7589 13.4599L36.8335 15.4517C38.6637 15.7296 40.0818 17.1263 40.3862 18.9522L42.2148 29.9174C42.4737 31.4697 41.3429 32.7155 39.7723 32.6146L30.1133 31.9942C29.2834 31.9415 28.4635 32.2 27.8139 32.7193C27.1643 33.2385 26.7314 33.9812 26.5998 34.8024C25.1805 43.6709 26.7075 53.0504 31.4456 61.252C31.4456 61.2542 31.4456 61.2565 31.4456 61.2587C35.9726 69.0636 42.8842 74.8927 50.7963 78.1995C51.5432 78.5109 52.3778 78.5409 53.1451 78.2839C53.9125 78.0269 54.5607 77.5004 54.9694 76.8019L59.9132 68.3511C60.7996 66.8356 62.6769 66.4995 64.0341 67.6131L72.6547 74.6925C74.0826 75.8641 74.5824 77.7859 73.9086 79.5057L69.1085 91.7704C68.8768 92.3623 67.0431 93.65 66.6138 93.6578C47.6933 94.0028 29.9257 84.1248 20.3237 67.6327C10.8167 51.0983 11.1231 30.8387 20.8723 14.6812C21.094 14.3137 23.1297 13.3643 23.7589 13.4599Z" fill="black"/>
</svg>
