<svg width="66" height="61" viewBox="0 0 66 61" fill="none" xmlns="http://www.w3.org/2000/svg">
<path d="M0.451172 50.2059C7.66992 50.8135 14.1281 49.1455 19.9805 45.0947C19.0781 44.9041 18.2531 44.9041 17.4668 44.7254C12.8648 43.7127 9.68086 41.1512 7.81172 37.16C7.72148 36.9574 7.48945 36.7072 7.6957 36.5047C7.85039 36.3498 8.14688 36.4809 8.36602 36.5047C9.99023 36.6596 11.6145 36.6119 13.2129 36.2664C13.2387 36.0043 13.0324 36.0281 12.8777 35.9805C8.92031 35.0035 6.0457 32.8233 4.18945 29.4516C3.33867 27.9027 2.87461 26.2824 2.82305 24.543C2.79727 23.8639 2.83594 23.852 3.51914 24.1498C5.14336 24.8647 6.84492 25.2697 8.79141 25.3531C7.90195 24.686 7.10273 24.1022 6.41953 23.3992C4.34414 21.2666 3.18398 18.7766 2.93906 15.9053C2.7457 13.5701 3.27422 11.3899 4.36992 9.29299C4.61484 8.82834 4.83398 8.86408 5.14336 9.20959C7.29609 11.6401 9.80977 13.7012 12.5812 15.4883C14.6437 16.8227 16.8352 17.9307 19.1426 18.8719C22.1848 20.099 25.343 20.9211 28.6172 21.4096C29.6484 21.5645 30.7055 21.6002 31.7496 21.6955C32.2781 21.7432 32.4199 21.6002 32.3168 21.0998C31.7883 18.5264 32.1492 16.0244 33.3609 13.6774C35.4363 9.67424 38.9168 7.24377 43.6477 6.60041C47.85 6.02853 51.627 7.13654 54.7594 9.86486C55.2363 10.2819 55.6617 10.3891 56.3062 10.2342C58.8328 9.63849 61.2434 8.79259 63.5121 7.60119C63.5766 7.56545 63.6539 7.55353 63.8859 7.47013C62.8289 10.3414 60.9598 12.4621 58.343 14.0824C58.9488 14.1897 60.7406 13.8918 61.9781 13.5344C63.1641 13.1889 64.35 12.8791 65.4844 12.4145C65.6391 12.5694 65.4973 12.6528 65.4328 12.7361C63.9246 14.702 62.1973 16.4772 60.1348 17.9545C59.8512 18.157 59.5805 18.3834 59.284 18.574C59.0648 18.717 59.052 18.8957 59.0648 19.0983C59.1551 21.2666 58.9875 23.4231 58.6523 25.5557C58.3043 27.736 57.7113 29.8567 56.925 31.9416C56.2805 33.6453 55.5199 35.3014 54.6176 36.9098C52.3875 40.8652 49.4871 44.3442 45.8648 47.3108C42.0105 50.4561 37.6277 52.7197 32.7293 54.1256C29.6742 55.0072 26.5418 55.5195 23.332 55.6744C20.857 55.7936 18.3949 55.7578 15.9457 55.4719C12.4395 55.0787 9.06211 54.1971 5.81367 52.9104C4.15078 52.2551 2.57812 51.4688 1.00547 50.6467C0.786328 50.5633 0.567187 50.468 0.451172 50.2059Z" fill="#B5B8B6"/>
</svg>
