<?xml version="1.0" encoding="utf-8"?><svg viewBox="0 0 512 512" xmlns="http://www.w3.org/2000/svg" xmlns:xlink="http://www.w3.org/1999/xlink"><style>:root>svg{display:none}:root>svg:target{display:block}</style><svg viewBox="0 0 79.536 79.536" id="car" xmlns="http://www.w3.org/2000/svg"><path d="M0 50.776h15.615a8.225 8.225 0 00-1.665 4.961H6.258L0 54.152v-3.376zm79.536-8.843v13.805h-6.628c0-.197-.026-.383-.042-.58a8.212 8.212 0 00-.875-3.18 8.267 8.267 0 00-7.368-4.516c-4.577 0-8.29 3.708-8.29 8.275H30.515a8.177 8.177 0 00-1.67-4.961h24.687v-28.73h13.847v3.313l4.417 13.256 7.74 3.318zM68.48 38.616l-3.304-9.942h-7.735v9.942H68.48zM28.304 55.737c0 3.355-2.718 6.079-6.066 6.079a6.083 6.083 0 01-6.077-6.079c0-3.34 2.721-6.068 6.077-6.068a6.073 6.073 0 016.066 6.068zm-2.758 0a3.322 3.322 0 00-3.309-3.314c-1.838 0-3.33 1.492-3.33 3.314a3.312 3.312 0 003.33 3.313 3.305 3.305 0 003.309-3.313zm45.151 0a6.084 6.084 0 01-6.074 6.079 6.075 6.075 0 01-6.079-6.079c0-3.34 2.724-6.068 6.079-6.068 3.345 0 6.074 2.723 6.074 6.068zm-2.759 0a3.32 3.32 0 00-3.314-3.314 3.306 3.306 0 00-3.313 3.314 3.292 3.292 0 003.313 3.313 3.306 3.306 0 003.314-3.313zM50.684 17.72H0v31.151h50.684V17.72z"/></svg><svg viewBox="0 0 20 19" id="cart" xmlns="http://www.w3.org/2000/svg"><path d="M20 6.579h-3.396L13.036.319a.608.608 0 00-.858-.225.678.678 0 00-.214.902l3.182 5.583H4.854L8.036.996a.678.678 0 00-.214-.902.608.608 0 00-.858.225L3.396 6.58H0v1.316h1.357l1.587 8.915c.166.934.941 1.611 1.844 1.611h10.424c.902 0 1.678-.677 1.843-1.61l1.588-8.916H20V6.579zm-4.174 9.99a.634.634 0 01-.614.536H4.788a.634.634 0 01-.615-.537L2.628 7.895h14.744l-1.546 8.674z"/></svg><svg viewBox="0 0 512 512" id="check" xmlns="http://www.w3.org/2000/svg"><path d="M235.1 386.3c-5.7 0-11.1-2.4-14.9-6.6l-104.1-116c-7.4-8.2-6.7-20.9 1.5-28.2 8.2-7.4 20.9-6.7 28.2 1.5l86.8 96.8 131.6-199.1c6.1-9.2 18.5-11.7 27.7-5.7 9.2 6.1 11.7 18.5 5.7 27.7L251.8 377.4c-3.4 5.2-9 8.5-15.2 8.9h-1.5z"/></svg><svg viewBox="0 0 26 20" id="eye" xmlns="http://www.w3.org/2000/svg"><path clip-rule="evenodd" d="M16.952 10.066a3.952 3.952 0 11-7.904-.001 3.952 3.952 0 017.904.001z"/><path clip-rule="evenodd" d="M12.998 19.194c4.76 0 9.113-3.423 11.565-9.128C22.11 4.361 17.758.94 12.998.94h.005c-4.76 0-9.114 3.422-11.566 9.127 2.452 5.705 6.805 9.128 11.566 9.128h-.005z"/></svg><svg viewBox="0 0 78 67" id="facebook" xmlns="http://www.w3.org/2000/svg"><path d="M57.08 2.804l-9.027-.012c-10.14 0-16.694 5.932-16.694 15.114v6.97h-9.075c-.784 0-1.42.56-1.42 1.252v10.097c0 .692.636 1.253 1.42 1.253h9.075v25.478c0 .692.635 1.252 1.42 1.252h11.84c.785 0 1.42-.561 1.42-1.252V37.478h10.61c.785 0 1.42-.56 1.42-1.253l.005-10.097c0-.332-.15-.65-.416-.886a1.521 1.521 0 00-1.005-.367H46.04v-5.907c0-2.84.767-4.281 4.958-4.281l6.08-.002c.784 0 1.42-.561 1.42-1.253V4.057c0-.691-.635-1.251-1.418-1.253z"/></svg><svg viewBox="0 0 510 510" id="hours" xmlns="http://www.w3.org/2000/svg"><path d="M255 0C114.75 0 0 114.75 0 255s114.75 255 255 255 255-114.75 255-255S395.25 0 255 0zm0 459c-112.2 0-204-91.8-204-204S142.8 51 255 51s204 91.8 204 204-91.8 204-204 204z"/><path d="M267.75 127.5H229.5v153l132.6 81.6 20.4-33.15-114.75-68.85z"/></svg><svg viewBox="0 0 502.664 502.664" id="icon" xmlns="http://www.w3.org/2000/svg"><path d="M153.821 358.226L0 274.337v-46.463l153.821-83.414v54.574L46.636 250.523l107.185 53.431v54.272zm26.273 29.358L282.103 115.08h32.227L212.084 387.584h-31.99zm168.749-29.358v-54.272l107.164-52.999-107.164-52.59v-53.927l153.821 83.522v46.183l-153.821 84.083z"/></svg><svg viewBox="0 0 48 48" id="li" xmlns="http://www.w3.org/2000/svg"><path d="M18 38a2 2 0 01-1.414-.585l-12-12a2 2 0 112.828-2.829L18 33.172l22.586-22.586a2 2 0 112.828 2.829l-24 24A2 2 0 0118 38z"/></svg><svg viewBox="0 0 108.592 36.985" id="logo-min" xmlns="http://www.w3.org/2000/svg"><path d="M18.924 0a27.092 27.106 0 00-6.62 17.725 27.092 27.106 0 006.608 17.711 27.092 27.106 0 006.608-17.71A27.092 27.106 0 0018.923 0z"/><path d="M50.928 22.11a27.733 26.479 79.074 00-18.504.382 27.733 26.479 79.074 00-13.512 12.944 27.733 26.479 79.074 0018.487-.387A27.733 26.479 79.074 0050.928 22.11z"/><path d="M.33 5.56a26.737 27.465 28.24 003.72 18.594 26.737 27.465 28.24 0014.862 11.282A26.737 27.465 28.24 0015.19 16.86 26.737 27.465 28.24 00.33 5.56z"/><path d="M37.493 5.56a27.465 26.737 61.76 01-3.72 18.594A27.465 26.737 61.76 0118.91 35.436a27.465 26.737 61.76 013.723-18.575 27.465 26.737 61.76 0114.859-11.3z"/><text x="91.693" y="155.826" transform="translate(-67.38 -128.024)"><tspan x="91.693" y="155.826">ад Цветов</tspan></text><text x="91.172" y="155.556" transform="translate(-67.38 -128.024)"><tspan x="91.172" y="155.556">ад</tspan></text><text x="76.072" y="162.635" transform="translate(-67.38 -128.024)"><tspan x="76.072" y="162.635">С</tspan></text><text x="75.648" y="163.241" transform="translate(-67.38 -128.024)"><tspan x="75.648" y="163.241">С</tspan></text></svg><svg viewBox="0 0 49 67" id="odno" xmlns="http://www.w3.org/2000/svg"><g clip-path="url(#ja)"><path d="M24.5 10.134c4.986 0 9.04 3.21 9.04 7.16 0 3.944-4.054 7.156-9.04 7.156-4.98 0-9.039-3.212-9.039-7.157 0-3.948 4.059-7.16 9.04-7.16zm0 24.446c12.043 0 21.832-7.754 21.832-17.287C46.332 7.756 36.542 0 24.5 0 12.46 0 2.67 7.756 2.67 17.293c0 9.533 9.792 17.287 21.831 17.287zm8.833 14.106c4.445-.802 8.73-2.195 12.678-4.16 2.987-1.49 3.888-4.618 2.005-6.985-1.88-2.371-5.827-3.084-8.82-1.593-8.942 4.455-20.456 4.453-29.394 0C6.81 34.457 2.863 35.17.985 37.54-.898 39.91 0 43.036 2.988 44.527c3.946 1.962 8.233 3.357 12.677 4.159L3.46 58.353c-2.495 1.978-2.495 5.185.003 7.163C4.712 66.504 6.348 67 7.982 67c1.639 0 3.277-.495 4.527-1.484l11.988-9.5 12 9.5c2.495 1.979 6.544 1.979 9.041 0 2.5-1.978 2.5-5.187 0-7.163l-12.205-9.667z"/></g><defs><clipPath id="ja"><path d="M0 0h49v67H0z"/></clipPath></defs></svg><svg viewBox="0 0 512 512" id="phone" xmlns="http://www.w3.org/2000/svg"><g data-name="1"><path d="M348.73 450.06a198.63 198.63 0 01-46.4-5.85c-52.43-12.65-106.42-44.74-152-90.36s-77.71-99.62-90.36-152c-13.32-55.1-3.82-102.24 26.72-132.78l8.72-8.72a42.2 42.2 0 0159.62 0l50.11 50.1a42.18 42.18 0 010 59.62l-29.6 29.59c14.19 24.9 33.49 49.82 56.3 72.63s47.75 42.12 72.64 56.31l29.59-29.6a42.15 42.15 0 0159.62 0l50.1 50.1a42.16 42.16 0 010 59.61l-8.73 8.72c-21.53 21.57-51.33 32.63-86.33 32.63zM125.22 78a12 12 0 00-8.59 3.56l-8.73 8.72c-22.87 22.87-29.55 60-18.81 104.49 11.37 47.13 40.64 96.1 82.41 137.86s90.73 71 137.87 82.41c44.5 10.74 81.61 4.06 104.48-18.81l8.72-8.72a12.16 12.16 0 000-17.19l-50.09-50.1a12.16 12.16 0 00-17.19 0l-37.51 37.51a15 15 0 01-17.5 2.72c-30.75-15.9-61.75-39.05-89.65-66.95s-51-58.88-66.94-89.63a15 15 0 012.71-17.5l37.52-37.51a12.16 12.16 0 000-17.19l-50.1-50.11a12.07 12.07 0 00-8.6-3.56z"/><path d="M364.75 269.73a15 15 0 01-15-15 99.37 99.37 0 00-99.25-99.26 15 15 0 010-30c71.27 0 129.25 58 129.25 129.26a15 15 0 01-15 15z"/><path d="M428.15 269.73a15 15 0 01-15-15c0-89.69-73-162.66-162.65-162.66a15 15 0 010-30c106.23 0 192.65 86.43 192.65 192.66a15 15 0 01-15 15z"/></g></svg><svg viewBox="0 0 18.961 15.088" id="quote" xmlns="http://www.w3.org/2000/svg"><path d="M3.732 0L0 8.057v7.032h8.026V7.43h-3.21L7.304 0zm10.935 0l-3.732 8.057v7.032h8.026V7.43h-3.21L18.239 0z"/></svg><svg viewBox="0 0 24 24" id="to-top" xmlns="http://www.w3.org/2000/svg"><path fill-rule="evenodd" clip-rule="evenodd" d="M4.293 15.707a1 1 0 010-1.414l7-7a1 1 0 011.414 0l7 7a1 1 0 01-1.414 1.414L12 9.414l-6.293 6.293a1 1 0 01-1.414 0z"/></svg><svg viewBox="0 0 66 61" id="twit" xmlns="http://www.w3.org/2000/svg"><path d="M.451 50.206c7.219.607 13.677-1.06 19.53-5.111-.903-.19-1.728-.19-2.514-.37-4.602-1.012-7.786-3.574-9.655-7.565-.09-.203-.323-.453-.116-.655.154-.155.45-.024.67 0 1.624.155 3.248.107 4.847-.239.026-.262-.18-.238-.335-.285-3.958-.977-6.832-3.158-8.689-6.53-.85-1.548-1.314-3.169-1.366-4.908-.026-.68.013-.691.696-.393 1.624.715 3.326 1.12 5.272 1.203-.89-.667-1.688-1.25-2.371-1.954-2.076-2.132-3.236-4.622-3.48-7.494-.194-2.335.334-4.515 1.43-6.612.245-.465.464-.429.773-.083 2.153 2.43 4.667 4.491 7.438 6.278 2.063 1.335 4.254 2.443 6.562 3.384 3.042 1.227 6.2 2.05 9.474 2.538 1.031.154 2.088.19 3.133.285.528.048.67-.095.567-.595-.529-2.574-.168-5.076 1.044-7.423 2.075-4.003 5.556-6.433 10.287-7.077 4.202-.571 7.979.537 11.111 3.265.477.417.903.524 1.547.37 2.527-.597 4.937-1.442 7.206-2.634.065-.036.142-.047.374-.13-1.057 2.87-2.926 4.991-5.543 6.611.606.108 2.398-.19 3.635-.548 1.186-.345 2.372-.655 3.506-1.12.155.155.013.239-.051.322-1.508 1.966-3.236 3.741-5.298 5.218-.284.203-.554.43-.851.62-.22.143-.232.322-.22.524.091 2.169-.077 4.325-.412 6.458-.348 2.18-.94 4.3-1.727 6.386a36.562 36.562 0 01-2.307 4.968 36.51 36.51 0 01-8.753 10.4c-3.855 3.146-8.237 5.41-13.136 6.816a40.878 40.878 0 01-9.397 1.548c-2.475.12-4.937.084-7.386-.202-3.506-.393-6.884-1.275-10.132-2.562-1.663-.655-3.236-1.441-4.809-2.263-.219-.084-.438-.179-.554-.441z"/></svg></svg>