<?xml version="1.0" encoding="utf-8"?><svg viewBox="0 0 512 512" xmlns="http://www.w3.org/2000/svg" xmlns:xlink="http://www.w3.org/1999/xlink"><style>:root>svg{display:none}:root>svg:target{display:block}</style><svg viewBox="0 0 79.536 79.536" id="car" xmlns="http://www.w3.org/2000/svg"><path d="M0 50.776h15.615a8.225 8.225 0 00-1.665 4.961H6.258L0 54.152v-3.376zm79.536-8.843v13.805h-6.628c0-.197-.026-.383-.042-.58a8.212 8.212 0 00-.875-3.18 8.267 8.267 0 00-7.368-4.516c-4.577 0-8.29 3.708-8.29 8.275H30.515a8.177 8.177 0 00-1.67-4.961h24.687v-28.73h13.847v3.313l4.417 13.256 7.74 3.318zM68.48 38.616l-3.304-9.942h-7.735v9.942H68.48zM28.304 55.737c0 3.355-2.718 6.079-6.066 6.079a6.083 6.083 0 01-6.077-6.079c0-3.34 2.721-6.068 6.077-6.068a6.073 6.073 0 016.066 6.068zm-2.758 0a3.322 3.322 0 00-3.309-3.314c-1.838 0-3.33 1.492-3.33 3.314a3.312 3.312 0 003.33 3.313 3.305 3.305 0 003.309-3.313zm45.151 0a6.084 6.084 0 01-6.074 6.079 6.075 6.075 0 01-6.079-6.079c0-3.34 2.724-6.068 6.079-6.068 3.345 0 6.074 2.723 6.074 6.068zm-2.759 0a3.32 3.32 0 00-3.314-3.314 3.306 3.306 0 00-3.313 3.314 3.292 3.292 0 003.313 3.313 3.306 3.306 0 003.314-3.313zM50.684 17.72H0v31.151h50.684V17.72z"/></svg><svg viewBox="0 0 512 512" id="check" xmlns="http://www.w3.org/2000/svg"><path d="M235.1 386.3c-5.7 0-11.1-2.4-14.9-6.6l-104.1-116c-7.4-8.2-6.7-20.9 1.5-28.2 8.2-7.4 20.9-6.7 28.2 1.5l86.8 96.8 131.6-199.1c6.1-9.2 18.5-11.7 27.7-5.7 9.2 6.1 11.7 18.5 5.7 27.7L251.8 377.4c-3.4 5.2-9 8.5-15.2 8.9h-1.5z"/></svg><svg viewBox="0 0 510 510" id="hours" xmlns="http://www.w3.org/2000/svg"><path d="M255 0C114.75 0 0 114.75 0 255s114.75 255 255 255 255-114.75 255-255S395.25 0 255 0zm0 459c-112.2 0-204-91.8-204-204S142.8 51 255 51s204 91.8 204 204-91.8 204-204 204z"/><path d="M267.75 127.5H229.5v153l132.6 81.6 20.4-33.15-114.75-68.85z"/></svg><svg viewBox="0 0 502.664 502.664" id="icon" xmlns="http://www.w3.org/2000/svg"><path d="M153.821 358.226L0 274.337v-46.463l153.821-83.414v54.574L46.636 250.523l107.185 53.431v54.272zm26.273 29.358L282.103 115.08h32.227L212.084 387.584h-31.99zm168.749-29.358v-54.272l107.164-52.999-107.164-52.59v-53.927l153.821 83.522v46.183l-153.821 84.083z"/></svg><svg viewBox="0 0 108.592 36.985" id="logo-min" xmlns="http://www.w3.org/2000/svg"><path d="M18.924 0a27.092 27.106 0 00-6.62 17.725 27.092 27.106 0 006.608 17.711 27.092 27.106 0 006.608-17.71A27.092 27.106 0 0018.923 0z"/><path d="M50.928 22.11a27.733 26.479 79.074 00-18.504.382 27.733 26.479 79.074 00-13.512 12.944 27.733 26.479 79.074 0018.487-.387A27.733 26.479 79.074 0050.928 22.11z"/><path d="M.33 5.56a26.737 27.465 28.24 003.72 18.594 26.737 27.465 28.24 0014.862 11.282A26.737 27.465 28.24 0015.19 16.86 26.737 27.465 28.24 00.33 5.56z"/><path d="M37.493 5.56a27.465 26.737 61.76 01-3.72 18.594A27.465 26.737 61.76 0118.91 35.436a27.465 26.737 61.76 013.723-18.575 27.465 26.737 61.76 0114.859-11.3z"/><text x="91.693" y="155.826" transform="translate(-67.38 -128.024)"><tspan x="91.693" y="155.826">ад Цветов</tspan></text><text x="91.172" y="155.556" transform="translate(-67.38 -128.024)"><tspan x="91.172" y="155.556">ад</tspan></text><text x="76.072" y="162.635" transform="translate(-67.38 -128.024)"><tspan x="76.072" y="162.635">С</tspan></text><text x="75.648" y="163.241" transform="translate(-67.38 -128.024)"><tspan x="75.648" y="163.241">С</tspan></text></svg><svg viewBox="0 0 512 512" id="phone" xmlns="http://www.w3.org/2000/svg"><g data-name="1"><path d="M348.73 450.06a198.63 198.63 0 01-46.4-5.85c-52.43-12.65-106.42-44.74-152-90.36s-77.71-99.62-90.36-152c-13.32-55.1-3.82-102.24 26.72-132.78l8.72-8.72a42.2 42.2 0 0159.62 0l50.11 50.1a42.18 42.18 0 010 59.62l-29.6 29.59c14.19 24.9 33.49 49.82 56.3 72.63s47.75 42.12 72.64 56.31l29.59-29.6a42.15 42.15 0 0159.62 0l50.1 50.1a42.16 42.16 0 010 59.61l-8.73 8.72c-21.53 21.57-51.33 32.63-86.33 32.63zM125.22 78a12 12 0 00-8.59 3.56l-8.73 8.72c-22.87 22.87-29.55 60-18.81 104.49 11.37 47.13 40.64 96.1 82.41 137.86s90.73 71 137.87 82.41c44.5 10.74 81.61 4.06 104.48-18.81l8.72-8.72a12.16 12.16 0 000-17.19l-50.09-50.1a12.16 12.16 0 00-17.19 0l-37.51 37.51a15 15 0 01-17.5 2.72c-30.75-15.9-61.75-39.05-89.65-66.95s-51-58.88-66.94-89.63a15 15 0 012.71-17.5l37.52-37.51a12.16 12.16 0 000-17.19l-50.1-50.11a12.07 12.07 0 00-8.6-3.56z"/><path d="M364.75 269.73a15 15 0 01-15-15 99.37 99.37 0 00-99.25-99.26 15 15 0 010-30c71.27 0 129.25 58 129.25 129.26a15 15 0 01-15 15z"/><path d="M428.15 269.73a15 15 0 01-15-15c0-89.69-73-162.66-162.65-162.66a15 15 0 010-30c106.23 0 192.65 86.43 192.65 192.66a15 15 0 01-15 15z"/></g></svg></svg>