<?xml version="1.0" encoding="utf-8"?><svg viewBox="0 0 502.66 502.66" xmlns="http://www.w3.org/2000/svg" xmlns:xlink="http://www.w3.org/1999/xlink"><style>:root>svg{display:none}:root>svg:target{display:block}</style><svg viewBox="0 0 502.664 502.664" id="icon" xmlns="http://www.w3.org/2000/svg"><path d="M153.821 358.226L0 274.337v-46.463l153.821-83.414v54.574L46.636 250.523l107.185 53.431v54.272zm26.273 29.358L282.103 115.08h32.227L212.084 387.584h-31.99zm168.749-29.358v-54.272l107.164-52.999-107.164-52.59v-53.927l153.821 83.522v46.183l-153.821 84.083z"/></svg><svg viewBox="0 0 125.029 53.471" id="logo" xmlns="http://www.w3.org/2000/svg"><path d="M25.585 2.584a36.222 35.338 0 00-8.85 23.108 36.222 35.338 0 008.834 23.09 36.222 35.338 0 008.835-23.09 36.222 35.338 0 00-8.82-23.108z"/><path d="M68.375 31.409a36.222 35.338 67.892 00-24.74.498 36.222 35.338 67.892 00-18.066 16.874 36.222 35.338 67.892 0024.717-.504 36.222 35.338 67.892 0018.089-16.868zM.725 9.833a35.338 36.222 57.449 004.974 24.24 35.338 36.222 57.449 0019.87 14.708 35.338 36.222 57.449 00-4.977-24.216A35.338 36.222 57.449 00.725 9.833z"/><path d="M50.412 9.833a36.222 35.338 32.551 01-4.974 24.24 36.222 35.338 32.551 01-19.87 14.708 36.222 35.338 32.551 014.977-24.216A36.222 35.338 32.551 0150.412 9.833z"/><text x="98.508" y="158.602" transform="translate(-58.011 -113.324)"><tspan x="98.508" y="158.602">ад Цветов</tspan></text><text x="98.114" y="158.964" transform="translate(-58.011 -113.324)"><tspan x="98.114" y="158.964">ад</tspan></text><text x="76.072" y="162.635" transform="translate(-58.011 -113.324)"><tspan x="76.072" y="162.635">С</tspan></text><text x="75.648" y="163.241" transform="translate(-58.011 -113.324)"><tspan x="75.648" y="163.241">С</tspan></text></svg></svg>