<?xml version="1.0" encoding="utf-8"?><svg viewBox="0 0 435 512" xmlns="http://www.w3.org/2000/svg" xmlns:xlink="http://www.w3.org/1999/xlink"><style>:root>svg{display:none}:root>svg:target{display:block}</style><svg viewBox="0 0 435 512" id="check" xmlns="http://www.w3.org/2000/svg"><path d="M158.1 386.3c-5.7 0-11.1-2.4-14.9-6.6l-104.1-116c-7.4-8.2-6.7-20.9 1.5-28.2 8.2-7.4 20.9-6.7 28.2 1.5l86.8 96.8 131.6-199.1c6.1-9.2 18.5-11.7 27.7-5.7 9.2 6.1 11.7 18.5 5.7 27.7L174.8 377.4c-3.4 5.2-9 8.5-15.2 8.9h-1.5z"/></svg><svg viewBox="0 0 26 20" id="eye" xmlns="http://www.w3.org/2000/svg"><g clip-path="url(#ba)" clip-rule="evenodd" stroke-width="1.5" stroke-linecap="round" stroke-linejoin="round"><path d="M16.952 10.066a3.952 3.952 0 11-7.904-.001 3.952 3.952 0 017.904.001z"/><path d="M12.998 19.194c4.76 0 9.113-3.423 11.565-9.128C22.11 4.361 17.758.94 12.998.94h.005c-4.76 0-9.114 3.422-11.566 9.127 2.452 5.705 6.805 9.128 11.566 9.128h-.005z"/></g><defs><clipPath id="ba"><path d="M0 0h26v20H0z"/></clipPath></defs></svg><svg viewBox="0 0 78 67" id="facebook" xmlns="http://www.w3.org/2000/svg"><path d="M57.08 2.804l-9.027-.012c-10.14 0-16.694 5.932-16.694 15.114v6.97h-9.075c-.784 0-1.42.56-1.42 1.252v10.097c0 .692.636 1.253 1.42 1.253h9.075v25.478c0 .692.635 1.252 1.42 1.252h11.84c.785 0 1.42-.561 1.42-1.252V37.478h10.61c.785 0 1.42-.56 1.42-1.253l.005-10.097c0-.332-.15-.65-.416-.886a1.521 1.521 0 00-1.005-.367H46.04v-5.907c0-2.84.767-4.281 4.958-4.281l6.08-.002c.784 0 1.42-.561 1.42-1.253V4.057c0-.691-.635-1.251-1.418-1.253z"/></svg><svg viewBox="0 0 48 48" id="li" xmlns="http://www.w3.org/2000/svg"><path d="M18 38a2 2 0 01-1.414-.585l-12-12a2 2 0 112.828-2.829L18 33.172l22.586-22.586a2 2 0 112.828 2.829l-24 24A2 2 0 0118 38z"/></svg><svg viewBox="0 0 26 28" id="like" xmlns="http://www.w3.org/2000/svg"><path d="M18.555 3.26c3.076 0 5.566 2.682 5.566 5.988 0 5.986-5.566 9.395-11.124 15.382-5.56-5.987-11.118-9.396-11.118-15.382 0-3.306 2.49-5.987 5.559-5.987 2.78 0 4.17 1.497 5.559 4.49 1.39-2.993 2.78-4.49 5.558-4.49z"/></svg><svg viewBox="0 0 411 140" id="logo-min" xmlns="http://www.w3.org/2000/svg"><g clip-path="url(#fa)"><path d="M71.525 0a102.481 102.481 0 00-25.018 66.99 102.483 102.483 0 0024.973 66.94 102.482 102.482 0 0024.975-66.938A102.478 102.478 0 0071.525 0z"/><path d="M192.485 83.567c-22.865-8.308-47.689-7.797-69.933 1.442-22.203 9.278-40.33 26.642-51.073 48.92 22.849 8.285 47.648 7.766 69.871-1.463 22.223-9.26 40.374-26.617 51.135-48.9z" fill-opacity=".614"/><path d="M1.253 21.014C-2.57 45.581 2.42 70.526 15.31 91.286c12.922 20.711 32.858 35.847 56.169 42.643 3.803-24.546-1.19-49.464-14.067-70.205C44.505 42.99 24.57 27.83 1.253 21.014z" fill-opacity=".688"/><path d="M141.707 21.014c3.822 24.567-1.169 49.512-14.059 70.272-12.922 20.711-32.858 35.847-56.168 42.643-3.804-24.546 1.189-49.464 14.067-70.205 12.908-20.735 32.842-35.895 56.16-42.71z" fill-opacity=".688"/><path d="M114.366 83.984c0-1.235-.203-2.305-.61-3.211-.406-.907-.937-1.649-1.593-2.227a6.506 6.506 0 00-2.227-1.289 7.68 7.68 0 00-2.484-.422c-1.11 0-2.047.117-2.813.352-.765.234-1.39.554-1.875.96a3.65 3.65 0 00-1.031 1.454 5.08 5.08 0 00-.305 1.781c0 .75.133 1.508.399 2.273.281.75.687 1.485 1.218 2.204l-.093.257c-.891.438-1.789.657-2.696.657-.53 0-1.03-.078-1.5-.235a3.72 3.72 0 01-1.195-.726 3.594 3.594 0 01-.797-1.149 3.95 3.95 0 01-.281-1.523c0-.922.219-1.79.656-2.602a8.869 8.869 0 011.781-2.226 13.071 13.071 0 012.555-1.805 19.759 19.759 0 013-1.336 18.983 18.983 0 013.094-.844 15.319 15.319 0 012.906-.304c1.641 0 3.039.218 4.195.656 1.172.437 2.118 1.078 2.836 1.922.735.828 1.266 1.836 1.594 3.023.344 1.188.516 2.532.516 4.032 0 1.03-.047 2.164-.141 3.398a231.314 231.314 0 01-.281 3.89c-.11 1.344-.211 2.735-.305 4.172a79.15 79.15 0 00-.117 4.29c0 2.249.414 3.945 1.242 5.085.844 1.125 1.945 1.688 3.305 1.688 1.203 0 2.547-.445 4.031-1.336l.68 1.008c-1.047 1.047-2.188 1.844-3.422 2.39a9.498 9.498 0 01-3.891.821c-1.015 0-1.953-.172-2.812-.516a6.09 6.09 0 01-2.227-1.523c-.625-.688-1.109-1.547-1.453-2.578-.344-1.032-.516-2.227-.516-3.586 0-.407.008-.813.024-1.22.031-.405.086-.835.164-1.288h-.141a34.934 34.934 0 01-2.343 3.984 21.924 21.924 0 01-2.907 3.492 14.331 14.331 0 01-3.375 2.461 7.781 7.781 0 01-3.75.961c-1.078 0-2.062-.187-2.953-.562a6.928 6.928 0 01-2.297-1.547 7.272 7.272 0 01-1.476-2.32c-.344-.907-.516-1.891-.516-2.954 0-1.375.25-2.625.75-3.75A10.34 10.34 0 0197 95.093c.906-.89 1.984-1.656 3.234-2.297a21.536 21.536 0 014.078-1.617 28.64 28.64 0 014.664-.961 37.915 37.915 0 015.016-.328 68.34 68.34 0 00.258-2.86c.078-.921.117-1.937.117-3.046zm-14.39 16.101c0 .61.062 1.195.187 1.758.14.547.351 1.031.632 1.453a3.39 3.39 0 001.102 1.008c.453.234.992.351 1.617.351.703 0 1.43-.164 2.18-.492a9.785 9.785 0 002.203-1.359 13.657 13.657 0 002.086-2.063 17.582 17.582 0 001.805-2.648c.531-.953.968-1.953 1.312-3a14.61 14.61 0 00.703-3.258 41.94 41.94 0 00-3.445.235 23.164 23.164 0 00-3.258.539c-1.016.25-1.961.578-2.836.984a8.384 8.384 0 00-2.273 1.523 6.452 6.452 0 00-1.477 2.133c-.359.813-.539 1.758-.539 2.836zm28.171 25.969a294.3 294.3 0 00-.539-9.938 443.04 443.04 0 00-.82-9.867c0-.281.14-.422.421-.422h1.266a39.01 39.01 0 011.336-.023 274.155 274.155 0 012.648-7.078 229.59 229.59 0 013.071-7.406 194.919 194.919 0 013.609-7.711 181.48 181.48 0 014.313-8.086c.187-.328.398-.586.632-.774.235-.203.477-.351.727-.445.25-.11.5-.18.75-.211a6.26 6.26 0 01.727-.047c.484 0 .961.047 1.429.14.469.079.914.22 1.336.423.438 2.64.852 5.062 1.242 7.265a311.195 311.195 0 002.227 11.367c.344 1.61.695 3.133 1.055 4.57.359 1.423.718 2.79 1.078 4.102.359 1.297.734 2.586 1.125 3.867l2.226.047c.688.016 1.297.039 1.828.071.282.015.477.062.586.14.11.078.164.203.164.375a.613.613 0 01-.023.141c0 .047-.008.109-.023.187a589.685 589.685 0 00-1.547 9.727 445.882 445.882 0 00-1.313 9.773l-1.875-.07a285.31 285.31 0 00-.234-9.023c-.11-2.969-.227-5.969-.352-9l-2.297-.047c-.718 0-1.429-.008-2.132-.024h-15.797c-.594.016-1.157.024-1.688.024-.531.015-1.047.031-1.547.047a230.895 230.895 0 00-.492 4.382 375.423 375.423 0 00-.445 4.594 2501.73 2501.73 0 01-.422 4.594c-.125 1.531-.25 3-.375 4.406l-1.875-.07zm18.656-20.344h1.758c.594 0 1.18.008 1.758.024-.547-1.985-1.063-4-1.547-6.047a236.594 236.594 0 01-1.406-6.399 316.78 316.78 0 01-1.289-6.96 554.128 554.128 0 01-1.243-7.758h-.164c-2.593 4.703-4.859 9.343-6.796 13.921-1.922 4.563-3.547 8.985-4.875 13.266 1.562 0 3.07-.008 4.523-.023 1.469-.016 2.75-.024 3.844-.024h5.437zm39.352-44.086c0-.734-.039-1.36-.117-1.875-.063-.531-.219-.96-.469-1.289-.25-.328-.61-.562-1.078-.703-.453-.156-1.063-.234-1.828-.234-.516 0-1.149.03-1.899.093a26.24 26.24 0 00-2.344.258l-.234-1.945c2.297-.594 4.266-1.031 5.906-1.313 1.657-.28 3.024-.421 4.102-.421 1.031 0 1.82.14 2.367.421.563.266.969.672 1.219 1.22.265.53.422 1.187.469 1.968.046.781.07 1.672.07 2.672 0 .203-.016.726-.047 1.57-.016.844-.039 1.922-.07 3.235a344.738 344.738 0 01-.141 4.453c-.047 1.672-.102 3.43-.164 5.273a873.626 873.626 0 01-.164 5.672c-.047 1.937-.102 3.82-.164 5.648a437.932 437.932 0 01-.164 5.18c-.047 1.625-.086 3.063-.117 4.313a216.571 216.571 0 01-.094 3c-.016.765-.024 1.195-.024 1.289 0 .734.024 1.398.071 1.992.047.578.203 1.07.468 1.476.266.407.68.719 1.243.938.562.219 1.367.328 2.414.328.359 0 .82-.008 1.383-.023a65.427 65.427 0 011.851-.024c.688-.016 1.414-.031 2.18-.047.765-.015 1.531-.023 2.297-.023h2.882c.704 0 1.407.008 2.11.023.703 0 1.422.008 2.156.024l2.297.047c.797 0 1.648.007 2.555.023a12.12 12.12 0 01-.235-1.219 18.183 18.183 0 01-.14-1.664 85.24 85.24 0 01-.071-2.508c-.015-1-.023-2.226-.023-3.68a593.102 593.102 0 01.422-22.922 738.4 738.4 0 01.398-9.046c.156-2.781.305-5.36.446-7.734.015-.344.117-.633.304-.868.203-.25.453-.453.75-.609a3.368 3.368 0 011.008-.375c.375-.078.75-.117 1.125-.117.922 0 1.898.226 2.93.68-.203 2.671-.391 5.195-.563 7.57a734.59 734.59 0 00-.422 6.844 1141.89 1141.89 0 00-.304 6.492 409.91 409.91 0 00-.235 6.445 817.742 817.742 0 00-.117 6.727 1054.8 1054.8 0 00-.023 7.312c0 1.422.007 2.625.023 3.61.031.984.125 1.804.281 2.46.157.641.391 1.149.703 1.524.313.375.758.664 1.336.867.579.188 1.305.313 2.18.375.891.063 1.984.109 3.281.141.297 0 .446.132.446.398v.094a.51.51 0 01-.024.164 902.716 902.716 0 00-1.804 11.062 1442.67 1442.67 0 00-1.665 11.204l-2.32-.094c.016-1.063.031-2.211.047-3.446.031-1.234.055-2.492.07-3.773.032-1.266.055-2.516.071-3.75.031-1.234.054-2.391.07-3.469.016-1.062.031-2.015.047-2.859.015-.828.023-1.477.023-1.945 0-.219-.031-.375-.093-.469-.063-.094-.274-.141-.633-.141-.891-.015-1.735-.031-2.532-.047-.781-.015-1.531-.023-2.25-.023a90.633 90.633 0 00-2.062-.024 86.175 86.175 0 00-1.969-.023c-3.406 0-6.429.016-9.07.047s-4.938.062-6.891.094c-1.937.031-3.562.062-4.875.093-1.297.032-2.32.047-3.07.047-.875 0-1.602-.117-2.18-.351-.578-.25-1.039-.578-1.383-.985a3.775 3.775 0 01-.726-1.429 6.925 6.925 0 01-.211-1.735c0-.453.047-1.758.141-3.914.109-2.156.226-5.047.351-8.672.141-3.625.258-7.93.352-12.914.109-4.984.164-10.539.164-16.664zm42.679 14.438c1.157-.235 2.438-.469 3.844-.703a89.248 89.248 0 014.383-.657 111.31 111.31 0 014.57-.468c1.532-.125 3-.188 4.407-.188.828 0 1.718.04 2.671.117.969.063 1.93.196 2.883.399.953.187 1.867.453 2.742.797a8.213 8.213 0 012.321 1.312 5.967 5.967 0 011.64 1.945c.407.766.61 1.665.61 2.696 0 1.281-.281 2.43-.844 3.445a9.163 9.163 0 01-2.18 2.602c-.89.718-1.89 1.312-3 1.78a15.99 15.99 0 01-3.304 1.009v.117c1.281.062 2.547.258 3.797.586 1.265.328 2.398.812 3.398 1.453a7.71 7.71 0 012.461 2.46c.625 1 .937 2.212.937 3.634 0 1.25-.203 2.382-.609 3.398a8.666 8.666 0 01-1.641 2.672 11.173 11.173 0 01-2.461 2.039 15.933 15.933 0 01-3.046 1.406c-1.094.36-2.235.625-3.422.797a24.184 24.184 0 01-3.516.258c-1.078 0-2.133-.078-3.164-.234-1.031-.157-2-.368-2.906-.633l-4.313.586-.375-.024c.203-2.672.375-5.304.516-7.898.156-2.61.281-5.117.375-7.524.094-2.421.156-4.71.187-6.867a274 274 0 00.071-5.93c0-.593-.071-1.078-.211-1.453-.125-.375-.313-.664-.563-.867a2.006 2.006 0 00-.914-.445 5.637 5.637 0 00-1.195-.117c-.5 0-1.109.039-1.828.117-.703.078-1.406.172-2.11.281l-.211-1.898zm11.297 29.226c.844.407 1.719.703 2.625.891.907.187 1.789.281 2.649.281 1.187 0 2.32-.164 3.398-.492a8.94 8.94 0 002.86-1.5 7.373 7.373 0 001.968-2.461c.5-.984.75-2.117.75-3.398 0-1.375-.304-2.508-.914-3.399a6.185 6.185 0 00-2.39-2.133c-.985-.515-2.118-.875-3.399-1.078a25.193 25.193 0 00-5.437-.258c-.5.016-1 .04-1.5.07l-.61 13.477zm1.243-28.71a128.75 128.75 0 00-.094 2.273 516.965 516.965 0 01-.281 6.773 525.514 525.514 0 01-.165 4.172c1.547 0 3.055-.125 4.524-.375 1.484-.266 2.805-.695 3.961-1.289 1.156-.594 2.086-1.375 2.789-2.344.719-.984 1.078-2.203 1.078-3.656 0-1.203-.258-2.18-.773-2.93a5.328 5.328 0 00-1.993-1.78 8.798 8.798 0 00-2.695-.868 18.377 18.377 0 00-2.883-.234c-.515 0-1.078.023-1.687.07-.594.031-1.188.094-1.781.187zm47.789 24.234c.093.047.211.117.351.211.156.078.297.172.422.281.125.094.234.203.328.328a.505.505 0 01.141.328.313.313 0 01-.071.188 19.487 19.487 0 01-2.835 3.187 17.57 17.57 0 01-3.141 2.25 13.773 13.773 0 01-3.305 1.313 12.997 12.997 0 01-3.328.445c-1.875 0-3.594-.383-5.156-1.148a12.35 12.35 0 01-4.031-3.141c-1.125-1.328-2.008-2.883-2.649-4.664-.625-1.797-.937-3.719-.937-5.766 0-1.672.179-3.343.539-5.015a24.573 24.573 0 011.593-4.782 22.191 22.191 0 012.555-4.218c1-1.313 2.133-2.446 3.399-3.399a15.806 15.806 0 014.195-2.273c1.531-.547 3.172-.82 4.922-.82 1.156 0 2.258.156 3.304.468 1.047.313 1.961.766 2.743 1.36A6.447 6.447 0 01290.1 78.1c.469.86.703 1.836.703 2.93 0 1.593-.523 2.984-1.57 4.171-1.031 1.188-2.461 2.196-4.289 3.024-1.828.828-3.985 1.5-6.469 2.015-2.469.5-5.141.875-8.016 1.125v.399c0 2 .25 3.828.75 5.484.516 1.657 1.219 3.078 2.11 4.266.89 1.172 1.937 2.086 3.14 2.742 1.204.656 2.5.984 3.891.984 1.406 0 2.844-.343 4.313-1.031 1.484-.703 2.984-1.836 4.5-3.398zm-4.407-18.82c0-.72-.125-1.391-.375-2.016a4.645 4.645 0 00-1.007-1.617 4.491 4.491 0 00-1.524-1.102 4.65 4.65 0 00-1.922-.398c-1.015 0-1.937.18-2.765.539a7.568 7.568 0 00-2.227 1.476 9.913 9.913 0 00-1.734 2.157c-.5.812-.93 1.68-1.289 2.601a21.931 21.931 0 00-.844 2.836 23.824 23.824 0 00-.469 2.836c2.219-.156 4.203-.422 5.953-.797 1.766-.39 3.25-.883 4.453-1.477 1.219-.609 2.149-1.328 2.789-2.156a4.64 4.64 0 00.961-2.883zm60.891 23.226c-.578.453-1.289.914-2.133 1.383-.828.453-1.695.867-2.601 1.242a22.2 22.2 0 01-2.649.914c-.859.234-1.601.352-2.226.352-.422 0-.813-.039-1.172-.118a1.95 1.95 0 01-.961-.492c-.281-.265-.539-.656-.774-1.172-.218-.531-.406-1.25-.562-2.156-.156-.906-.274-2.031-.352-3.375a86.533 86.533 0 01-.117-4.898c0-2.125.024-4.032.07-5.72.047-1.687.094-3.179.141-4.476.047-1.296.094-2.406.141-3.328.047-.937.07-1.71.07-2.32 0-.484-.023-.922-.07-1.313-.047-.39-.157-.718-.328-.984a1.57 1.57 0 00-.774-.633c-.344-.156-.805-.234-1.383-.234-.922 0-2.093.008-3.515.023-1.407 0-3.188.008-5.344.024-.094 1.734-.195 3.594-.305 5.578a747.757 747.757 0 00-.281 6.586 1351.45 1351.45 0 00-.234 8.039 710.76 710.76 0 00-.188 9.937l-4.922.61-.375-.024c.125-2.218.25-4.633.375-7.242.125-2.61.242-5.266.352-7.969.125-2.718.226-5.406.304-8.062.079-2.656.133-5.14.165-7.453-.829.015-1.688.023-2.579.023h-9.187c.062.281.109.57.141.867.031.297.046.735.046 1.313 0 .594-.031 1.687-.093 3.281a390.737 390.737 0 01-.235 6.024 1499.2 1499.2 0 01-.351 8.343c-.125 3.157-.266 6.586-.422 10.289l-4.781.61-.375-.024c.125-1.531.234-3.14.328-4.828.109-1.687.203-3.383.281-5.086a294 294 0 00.234-4.992c.078-1.625.133-3.14.164-4.547.047-1.422.079-2.68.094-3.773.031-1.11.047-1.992.047-2.649 0-.828-.023-1.53-.07-2.11-.047-.593-.157-1.093-.328-1.5a2.433 2.433 0 00-.727-1.007c-.312-.25-.734-.445-1.266-.586-.531-.14-1.187-.234-1.968-.281a42.626 42.626 0 00-2.789-.117l-.047-1.969c1.422.031 2.664.055 3.726.07 1.078 0 2.008.008 2.789.024h4.571c5.109 0 9.57-.008 13.382-.024 3.829-.03 7.079-.062 9.75-.093 2.688-.032 4.829-.055 6.422-.07 1.594-.032 2.719-.048 3.375-.048.703 0 1.211.172 1.524.516.312.328.469.797.469 1.406 0 .25-.032.696-.094 1.336a288.779 288.779 0 01-.469 5.344c-.094 1.125-.18 2.305-.258 3.539a252.99 252.99 0 00-.211 3.82c-.047 1.297-.07 2.57-.07 3.82 0 1.563.023 2.907.07 4.032.063 1.125.149 2.07.258 2.836.125.765.274 1.383.445 1.851.172.453.383.805.633 1.055.25.25.539.414.867.492.329.078.696.117 1.102.117a9.11 9.11 0 002.297-.304 17.48 17.48 0 002.508-.938l.445 1.219zm1.852-10.617c0-1.578.164-3.18.492-4.805a24.512 24.512 0 011.453-4.71 22.399 22.399 0 012.367-4.29 17.602 17.602 0 013.281-3.516c1.235-1 2.61-1.789 4.125-2.367 1.516-.578 3.164-.867 4.946-.867 2 0 3.765.422 5.296 1.266a12.009 12.009 0 013.891 3.351c1.047 1.375 1.836 2.946 2.367 4.711.547 1.766.821 3.57.821 5.414 0 1.578-.164 3.18-.493 4.805a24.102 24.102 0 01-1.476 4.734 22.605 22.605 0 01-2.391 4.289 17.276 17.276 0 01-3.258 3.493 14.984 14.984 0 01-4.125 2.367c-1.515.578-3.164.867-4.945.867-2 0-3.773-.422-5.32-1.266a12.192 12.192 0 01-3.867-3.328c-1.032-1.39-1.821-2.969-2.368-4.734a18.7 18.7 0 01-.796-5.414zm5.601-2.227c0 1.063.078 2.14.234 3.235.172 1.093.43 2.148.774 3.164a16.914 16.914 0 001.266 2.859 10.559 10.559 0 001.804 2.297 8.264 8.264 0 002.344 1.547c.875.375 1.836.562 2.883.562 1.14 0 2.14-.242 3-.726a7.535 7.535 0 002.25-1.969 10.769 10.769 0 001.57-2.789 20.966 20.966 0 001.008-3.234c.25-1.125.422-2.235.516-3.329.109-1.093.164-2.101.164-3.023a20.5 20.5 0 00-.258-3.234 17.02 17.02 0 00-.75-3.141 15.163 15.163 0 00-1.289-2.836 9.11 9.11 0 00-1.805-2.297 7.834 7.834 0 00-2.344-1.547c-.859-.375-1.812-.562-2.859-.562-1.141 0-2.149.242-3.024.726a7.617 7.617 0 00-2.25 1.946 11.748 11.748 0 00-1.57 2.789 22.785 22.785 0 00-.984 3.234 27.25 27.25 0 00-.539 3.328 35.27 35.27 0 00-.141 3zm26.016-16.312c1.156-.235 2.437-.469 3.843-.703a89.248 89.248 0 014.383-.657c1.516-.187 3.039-.343 4.571-.468 1.531-.125 3-.188 4.406-.188.828 0 1.719.04 2.672.117a20.11 20.11 0 012.883.399c.953.187 1.867.453 2.742.797a8.207 8.207 0 012.32 1.312 5.97 5.97 0 011.641 1.945c.406.766.609 1.665.609 2.696 0 1.281-.281 2.43-.844 3.445a9.175 9.175 0 01-2.179 2.602 12.496 12.496 0 01-3 1.78c-1.11.47-2.211.806-3.305 1.009v.117c1.281.062 2.547.258 3.797.586 1.265.328 2.398.812 3.398 1.453a7.71 7.71 0 012.461 2.46c.625 1 .938 2.212.938 3.634 0 1.25-.203 2.382-.61 3.398-.39 1-.937 1.891-1.64 2.672a11.196 11.196 0 01-2.461 2.039 15.942 15.942 0 01-3.047 1.406c-1.094.36-2.235.625-3.422.797a24.184 24.184 0 01-3.516.258c-1.078 0-2.132-.078-3.164-.234-1.031-.157-2-.368-2.906-.633l-4.312.586-.375-.024c.203-2.672.375-5.304.515-7.898.156-2.61.281-5.117.375-7.524a287.3 287.3 0 00.188-6.867c.047-2.156.07-4.133.07-5.93 0-.593-.07-1.078-.211-1.453-.125-.375-.312-.664-.562-.867a2.01 2.01 0 00-.915-.445 5.63 5.63 0 00-1.195-.117c-.5 0-1.109.039-1.828.117a48.8 48.8 0 00-2.109.281l-.211-1.898zm11.297 29.226a11.28 11.28 0 002.625.891c.906.187 1.789.281 2.648.281 1.188 0 2.32-.164 3.398-.492a8.92 8.92 0 002.86-1.5 7.388 7.388 0 001.969-2.461c.5-.984.75-2.117.75-3.398 0-1.375-.305-2.508-.914-3.399a6.195 6.195 0 00-2.391-2.133c-.984-.515-2.117-.875-3.399-1.078a25.218 25.218 0 00-5.437-.258c-.5.016-1 .04-1.5.07l-.609 13.477zm1.242-28.71c-.031.609-.063 1.367-.094 2.273-.031.906-.07 1.93-.117 3.07s-.102 2.375-.164 3.703a576.02 576.02 0 01-.164 4.172 26.91 26.91 0 004.523-.375c1.485-.266 2.805-.695 3.961-1.289 1.156-.594 2.086-1.375 2.789-2.344.719-.984 1.078-2.203 1.078-3.656 0-1.203-.258-2.18-.773-2.93a5.333 5.333 0 00-1.992-1.78 8.804 8.804 0 00-2.696-.868 18.374 18.374 0 00-2.882-.234 22.1 22.1 0 00-1.688.07c-.594.031-1.187.094-1.781.187z"/><path d="M112.398 82.964c0-1.234-.203-2.305-.609-3.211-.406-.906-.937-1.648-1.594-2.227a6.492 6.492 0 00-2.226-1.289 7.69 7.69 0 00-2.485-.422c-1.109 0-2.047.118-2.812.352-.766.234-1.391.555-1.875.96a3.65 3.65 0 00-1.031 1.454 5.077 5.077 0 00-.305 1.781c0 .75.133 1.508.398 2.274a9.11 9.11 0 001.219 2.203l-.094.258c-.89.437-1.789.656-2.695.656a4.714 4.714 0 01-1.5-.234 3.719 3.719 0 01-1.195-.727 3.594 3.594 0 01-.797-1.148 3.95 3.95 0 01-.281-1.524c0-.922.218-1.789.656-2.601a8.869 8.869 0 011.781-2.227 13.081 13.081 0 012.555-1.805 19.77 19.77 0 013-1.336 18.956 18.956 0 013.094-.843 15.319 15.319 0 012.906-.305c1.64 0 3.039.219 4.195.656 1.172.438 2.117 1.078 2.836 1.922.734.828 1.266 1.836 1.594 3.023.344 1.188.515 2.532.515 4.032a44.98 44.98 0 01-.14 3.398 231.305 231.305 0 01-.281 3.89c-.11 1.345-.211 2.735-.305 4.173a79.15 79.15 0 00-.117 4.289c0 2.25.414 3.945 1.242 5.086.844 1.125 1.945 1.687 3.305 1.687 1.203 0 2.546-.445 4.031-1.336l.679 1.008c-1.046 1.047-2.187 1.844-3.421 2.391a9.504 9.504 0 01-3.891.82c-1.016 0-1.953-.172-2.813-.516a6.083 6.083 0 01-2.226-1.523c-.625-.688-1.109-1.547-1.453-2.578-.344-1.031-.516-2.227-.516-3.586 0-.406.008-.813.024-1.219.031-.406.086-.836.164-1.289h-.141a34.802 34.802 0 01-2.344 3.984 21.971 21.971 0 01-2.906 3.493 14.36 14.36 0 01-3.375 2.461 7.791 7.791 0 01-3.75.96c-1.078 0-2.062-.187-2.953-.562a6.927 6.927 0 01-2.297-1.547 7.273 7.273 0 01-1.477-2.32c-.343-.906-.515-1.891-.515-2.953 0-1.375.25-2.625.75-3.75a10.341 10.341 0 012.11-3.024c.906-.89 1.984-1.656 3.234-2.297a21.534 21.534 0 014.078-1.617 28.628 28.628 0 014.664-.96 37.905 37.905 0 015.015-.329c.11-.984.196-1.937.258-2.86a36.34 36.34 0 00.117-3.046zm-14.39 16.101c0 .61.062 1.196.187 1.758.14.547.352 1.031.633 1.453a3.39 3.39 0 001.102 1.008c.453.235.992.352 1.617.352.703 0 1.43-.164 2.18-.492a9.826 9.826 0 002.203-1.36 13.683 13.683 0 002.086-2.062 17.597 17.597 0 001.804-2.649c.532-.953.969-1.953 1.313-3 .359-1.062.594-2.148.703-3.258-1.156.032-2.305.11-3.445.235a23.31 23.31 0 00-3.258.539 15.53 15.53 0 00-2.836.984 8.405 8.405 0 00-2.274 1.524 6.444 6.444 0 00-1.476 2.133c-.36.812-.54 1.757-.54 2.835zm28.172 25.969a294.099 294.099 0 00-.539-9.937 442.67 442.67 0 00-.821-9.868c0-.281.141-.421.422-.421h1.266c.437-.016.883-.024 1.336-.024a275.113 275.113 0 012.648-7.078c.953-2.422 1.977-4.89 3.07-7.406a196.468 196.468 0 013.61-7.711c1.312-2.625 2.75-5.32 4.312-8.086.188-.328.399-.586.633-.773.235-.204.477-.352.727-.446.25-.11.5-.18.75-.21a6.11 6.11 0 01.726-.048c.485 0 .961.047 1.43.141.469.078.914.219 1.336.422.437 2.64.851 5.062 1.242 7.266a311.178 311.178 0 002.227 11.367c.343 1.61.695 3.133 1.054 4.57.36 1.422.719 2.79 1.078 4.102.36 1.296.735 2.585 1.125 3.867.797.015 1.54.031 2.227.047a50.51 50.51 0 011.828.07c.281.016.477.062.586.141.109.078.164.203.164.375a.667.667 0 01-.023.14c0 .047-.008.11-.024.188a598.643 598.643 0 00-1.547 9.726 451.334 451.334 0 00-1.312 9.774l-1.875-.071a285.31 285.31 0 00-.234-9.023c-.11-2.969-.227-5.969-.352-9-.813-.016-1.578-.031-2.297-.047-.719 0-1.43-.008-2.133-.023h-15.797a66.99 66.99 0 01-1.687.023l-1.547.047a230.105 230.105 0 00-.492 4.383 375.249 375.249 0 00-.445 4.593c-.141 1.547-.282 3.079-.422 4.594-.125 1.531-.25 3-.375 4.406l-1.875-.07zm18.656-20.344h1.758c.593 0 1.179.008 1.758.024-.547-1.985-1.063-4-1.547-6.047a236.534 236.534 0 01-1.407-6.398c-.437-2.22-.867-4.54-1.289-6.961-.406-2.422-.82-5.008-1.242-7.758h-.164c-2.594 4.703-4.859 9.344-6.797 13.922-1.922 4.562-3.547 8.984-4.875 13.265 1.563 0 3.071-.008 4.524-.023a358.53 358.53 0 013.843-.024h5.438z"/><path d="M92.147 26.563c4.094 0 7.875.375 11.344 1.125 3.5.75 6.516 1.672 9.047 2.765 2.531 1.094 4.515 2.266 5.953 3.516 1.437 1.25 2.156 2.39 2.156 3.422 0 2.156-.078 4.953-.234 8.39-.156 3.438-.36 7.594-.61 12.47l-4.078-.141c.032-.438.047-.844.047-1.22.031-.405.047-.827.047-1.265-.031-2.156-.281-4.203-.75-6.14-.437-1.97-1.25-3.844-2.437-5.625a22.26 22.26 0 00-4.5-4.735 26.786 26.786 0 00-5.672-3.468 30.257 30.257 0 00-6.61-2.11c-2.343-.5-4.734-.75-7.171-.75-4.188 0-8 .656-11.438 1.969-3.406 1.281-6.453 3.078-9.14 5.39-2.688 2.282-5.032 5-7.032 8.157-1.969 3.125-3.61 6.531-4.922 10.218-1.281 3.688-2.25 7.563-2.906 11.625a80.956 80.956 0 00-.938 12.329c0 4.906.407 9.53 1.22 13.875.812 4.343 1.968 8.343 3.468 12 1.5 3.656 3.313 6.937 5.438 9.843 2.124 2.907 4.5 5.375 7.124 7.407a31.17 31.17 0 008.579 4.593c3.093 1.063 6.343 1.594 9.75 1.594 2.375 0 4.812-.25 7.312-.75 2.531-.531 5.094-1.344 7.688-2.437 2.593-1.125 5.203-2.532 7.828-4.219 2.656-1.719 5.297-3.766 7.922-6.141.25.125.531.281.843.469.344.187.657.406.938.656.281.219.515.469.703.75.219.281.328.563.328.844 0 .187-.125.453-.375.797-3.062 3.375-6.156 6.203-9.281 8.484-3.125 2.281-6.266 4.125-9.422 5.531-3.156 1.407-6.344 2.407-9.563 3a49.59 49.59 0 01-9.562.938c-4.219 0-8.25-.594-12.094-1.781a40.012 40.012 0 01-10.64-5.016c-3.282-2.187-6.25-4.828-8.907-7.922-2.656-3.125-4.922-6.625-6.797-10.5-1.874-3.875-3.328-8.078-4.359-12.609-1-4.563-1.5-9.375-1.5-14.438 0-4.875.484-9.765 1.453-14.672 1-4.937 2.469-9.656 4.407-14.156a62.76 62.76 0 017.359-12.61 49.937 49.937 0 0110.36-10.171c3.937-2.906 8.374-5.172 13.312-6.797 4.937-1.656 10.375-2.484 16.312-2.484z"/><path d="M90.546 28.855c4.094 0 7.875.375 11.344 1.125 3.5.75 6.516 1.672 9.047 2.766 2.531 1.093 4.516 2.265 5.953 3.515 1.438 1.25 2.156 2.391 2.156 3.422 0 2.157-.078 4.953-.234 8.39-.156 3.438-.359 7.595-.609 12.47l-4.078-.141c.031-.438.046-.844.046-1.219.032-.406.047-.828.047-1.265-.031-2.157-.281-4.203-.75-6.141-.437-1.969-1.25-3.844-2.437-5.625a22.262 22.262 0 00-4.5-4.734 26.786 26.786 0 00-5.672-3.47 30.254 30.254 0 00-6.61-2.108c-2.343-.5-4.734-.75-7.171-.75-4.188 0-8 .656-11.438 1.968-3.406 1.282-6.453 3.078-9.14 5.39-2.688 2.282-5.032 5-7.032 8.157-1.969 3.125-3.61 6.531-4.922 10.219-1.28 3.687-2.25 7.562-2.906 11.625a80.957 80.957 0 00-.937 12.328c0 4.906.406 9.531 1.218 13.875.813 4.344 1.97 8.344 3.47 12 1.5 3.656 3.312 6.938 5.437 9.844 2.125 2.906 4.5 5.375 7.125 7.406a31.19 31.19 0 008.578 4.594c3.093 1.062 6.343 1.594 9.75 1.594 2.375 0 4.812-.25 7.312-.75 2.531-.532 5.094-1.344 7.688-2.438 2.594-1.125 5.203-2.531 7.828-4.219 2.656-1.718 5.297-3.765 7.922-6.14.25.125.531.281.844.468.343.188.656.407.937.657.281.218.516.468.703.75.219.281.328.562.328.843 0 .188-.125.454-.375.797-3.062 3.375-6.156 6.203-9.281 8.485-3.125 2.281-6.266 4.125-9.422 5.531-3.156 1.406-6.344 2.406-9.562 3a49.588 49.588 0 01-9.563.937c-4.219 0-8.25-.593-12.094-1.781a40.01 40.01 0 01-10.64-5.015c-3.282-2.188-6.25-4.829-8.907-7.922-2.656-3.125-4.921-6.625-6.796-10.5s-3.329-8.078-4.36-12.61c-1-4.562-1.5-9.375-1.5-14.437 0-4.875.485-9.766 1.453-14.672 1-4.938 2.47-9.656 4.407-14.156a62.762 62.762 0 017.359-12.61 49.935 49.935 0 0110.36-10.172c3.937-2.906 8.374-5.172 13.312-6.797 4.937-1.656 10.375-2.484 16.312-2.484z"/></g><defs><clipPath id="fa"><path d="M0 0h410.428v139.786H0z"/></clipPath></defs></svg><svg viewBox="0 0 49 67" id="odno" xmlns="http://www.w3.org/2000/svg"><g clip-path="url(#ga)"><path d="M24.5 10.134c4.986 0 9.04 3.21 9.04 7.16 0 3.944-4.054 7.156-9.04 7.156-4.98 0-9.039-3.212-9.039-7.157 0-3.948 4.059-7.16 9.04-7.16zm0 24.446c12.043 0 21.832-7.754 21.832-17.287C46.332 7.756 36.542 0 24.5 0 12.46 0 2.67 7.756 2.67 17.293c0 9.533 9.792 17.287 21.831 17.287zm8.833 14.106c4.445-.802 8.73-2.195 12.678-4.16 2.987-1.49 3.888-4.618 2.005-6.985-1.88-2.371-5.827-3.084-8.82-1.593-8.942 4.455-20.456 4.453-29.394 0C6.81 34.457 2.863 35.17.985 37.54-.898 39.91 0 43.036 2.988 44.527c3.946 1.962 8.233 3.357 12.677 4.159L3.46 58.353c-2.495 1.978-2.495 5.185.003 7.163C4.712 66.504 6.348 67 7.982 67c1.639 0 3.277-.495 4.527-1.484l11.988-9.5 12 9.5c2.495 1.979 6.544 1.979 9.041 0 2.5-1.978 2.5-5.187 0-7.163l-12.205-9.667z"/></g><defs><clipPath id="ga"><path d="M0 0h49v67H0z"/></clipPath></defs></svg><svg viewBox="0 0 72 58" id="quote" xmlns="http://www.w3.org/2000/svg"><g clip-path="url(#ha)"><path d="M14.105 0L0 30.453v26.574h30.336V28.082H18.203L27.607 0H14.105zm41.329 0L41.33 30.453v26.574h30.336V28.083H59.532L68.936 0H55.434z"/></g><defs><clipPath id="ha"><path d="M0 0h71.665v57.027H0z"/></clipPath></defs></svg><svg viewBox="0 0 104 104" id="ticker-1" xmlns="http://www.w3.org/2000/svg"><path fill-rule="evenodd" clip-rule="evenodd" d="M29.25 78.019c-5.346 0-9.75 4.404-9.75 9.75s4.404 9.75 9.75 9.75S39 93.115 39 87.769s-4.404-9.75-9.75-9.75zm0 6.5c1.833 0 3.25 1.417 3.25 3.25 0 1.834-1.417 3.25-3.25 3.25S26 89.603 26 87.769c0-1.833 1.417-3.25 3.25-3.25zm48.75-6.5c-5.346 0-9.75 4.404-9.75 9.75s4.404 9.75 9.75 9.75 9.75-4.404 9.75-9.75-4.404-9.75-9.75-9.75zm0 6.5c1.833 0 3.25 1.417 3.25 3.25 0 1.834-1.417 3.25-3.25 3.25s-3.25-1.416-3.25-3.25c0-1.833 1.417-3.25 3.25-3.25zm-68.25-78a3.25 3.25 0 000 6.5h3.834l8.614 43.037c-3.48 1.496-5.948 4.964-5.948 8.963 0 5.345 4.405 9.75 9.75 9.75h58.538a3.25 3.25 0 100-6.5H26c-1.857 0-3.25-1.393-3.25-3.25s1.393-3.25 3.25-3.25h61.788A3.25 3.25 0 0091 59.027l5.624-35.75a3.25 3.25 0 00-3.212-3.758h-71.9L19.436 9.134A3.25 3.25 0 0016.25 6.52h-6.5zm13.064 19.5H89.61l-4.602 29.25-56.342-.019-5.852-29.231zm12.936 6.5a3.25 3.25 0 000 6.5h42.288a3.25 3.25 0 100-6.5H35.75zm6.5 9.75a3.25 3.25 0 000 6.5h29.288a3.25 3.25 0 100-6.5H42.25z"/></svg><svg viewBox="0 0 83 83" id="ticker-2" xmlns="http://www.w3.org/2000/svg"><path fill-rule="evenodd" clip-rule="evenodd" d="M15.563 44.13a2.594 2.594 0 100 5.187h23.343a2.594 2.594 0 100-5.188H15.563zm5.187-7.782a2.594 2.594 0 100 5.188h18.156a2.593 2.593 0 100-5.188H20.75zm7.781-7.781a2.593 2.593 0 100 5.187h10.375a2.594 2.594 0 100-5.187H28.531z"/><path fill-rule="evenodd" clip-rule="evenodd" d="M5.188 15.598a2.594 2.594 0 00-2.594 2.594v44.094a2.594 2.594 0 002.594 2.593h8.232c1.078 3.01 3.97 5.188 7.33 5.188s6.252-2.178 7.33-5.188h26.84c1.078 3.01 3.97 5.188 7.33 5.188s6.252-2.178 7.33-5.188h8.233a2.594 2.594 0 002.593-2.594v-20.75c0-.589-.2-1.16-.567-1.62l-10.375-12.97a2.594 2.594 0 00-2.026-.972H51.874v-7.781a2.594 2.594 0 00-2.594-2.594H5.188zm2.593 5.187h38.907v38.907H28.08c-1.078-3.01-3.97-5.188-7.33-5.188s-6.252 2.178-7.33 5.188H7.78V20.785zM51.875 31.16h5.188v12.97a2.594 2.594 0 002.593 2.593H75.22v12.969h-5.64c-1.078-3.01-3.97-5.188-7.33-5.188s-6.252 2.178-7.33 5.188h-3.045V31.16zm10.375 0h3.941l8.298 10.375H62.25V31.161zm-41.5 28.532c1.463 0 2.594 1.13 2.594 2.593 0 1.464-1.13 2.594-2.594 2.594-1.463 0-2.594-1.13-2.594-2.594 0-1.463 1.13-2.593 2.594-2.593zm41.5 0c1.463 0 2.594 1.13 2.594 2.593 0 1.464-1.13 2.594-2.594 2.594-1.463 0-2.594-1.13-2.594-2.594 0-1.463 1.13-2.593 2.594-2.593z"/></svg><svg viewBox="0 0 123 123" id="ticker-3" xmlns="http://www.w3.org/2000/svg"><path fill-rule="evenodd" clip-rule="evenodd" d="M88.406 76.928a3.844 3.844 0 00-3.844 3.843v13.784l-1.126-1.126a3.844 3.844 0 10-5.435 5.435l7.688 7.687c.058.05.118.097.18.143a3.868 3.868 0 00.675.481 3.784 3.784 0 00.803.33c.134.04.27.073.406.098.151.026.304.044.458.052.065.01.13.017.195.023.065-.006.13-.013.195-.023a3.91 3.91 0 00.458-.052 3.75 3.75 0 00.406-.098 3.97 3.97 0 00.398-.135 3.812 3.812 0 001.08-.676c.062-.046.122-.093.18-.143l7.688-7.687a3.844 3.844 0 00-5.435-5.435l-1.126 1.126V80.77a3.844 3.844 0 00-3.844-3.843z"/><path fill-rule="evenodd" clip-rule="evenodd" d="M46.125 3.844c-10.14 0-19.369 2.281-26.358 6.238-6.99 3.958-12.08 9.948-12.08 17.192v68.437c0 7.245 5.09 13.246 12.08 17.207 6.99 3.961 16.217 6.238 26.358 6.238 9.786 0 18.7-2.124 25.585-5.84 4.594 3.651 10.397 5.84 16.696 5.84 14.815 0 26.906-12.092 26.906-26.906 0-14.814-12.091-26.906-26.906-26.906-1.306 0-2.586.096-3.844.278V27.274c0-7.243-5.089-13.234-12.079-17.192-6.99-3.957-16.217-6.238-26.358-6.238zm0 7.687c8.965 0 17.036 2.11 22.567 5.24 5.53 3.132 8.183 6.928 8.183 10.503 0 3.578-2.652 7.385-8.183 10.518-5.53 3.133-13.603 5.24-22.567 5.24s-17.036-2.107-22.567-5.24c-5.53-3.133-8.183-6.94-8.183-10.518 0-3.575 2.652-7.371 8.183-10.503 5.53-3.13 13.602-5.24 22.567-5.24zm-30.75 29.962a32.124 32.124 0 004.392 2.988c6.99 3.96 16.217 6.238 26.358 6.238 10.141 0 19.368-2.278 26.358-6.238a32.124 32.124 0 004.392-2.988v8.596c0 3.578-2.652 7.377-8.183 10.51-5.53 3.133-13.603 5.248-22.567 5.248s-17.036-2.115-22.567-5.248c-5.53-3.133-8.183-6.932-8.183-10.51v-8.596zm0 22.807a32.17 32.17 0 004.392 2.988c6.99 3.96 16.217 6.246 26.358 6.246 10.141 0 19.368-2.286 26.358-6.246a32.17 32.17 0 004.392-2.988v3.649c-7.319 3.495-12.825 10.206-14.684 18.28-4.656 1.52-10.167 2.425-16.066 2.425-8.965 0-17.036-2.108-22.567-5.24-5.53-3.133-8.183-6.932-8.183-10.51V64.3zm73.031 8.731a19.16 19.16 0 0119.219 19.219 19.16 19.16 0 01-19.219 19.219A19.16 19.16 0 0169.187 92.25c0-.822.052-1.63.15-2.425.035-.168.057-.339.068-.51 1.043-6.876 5.704-12.522 11.99-14.97a3.84 3.84 0 001.11-.398 19.38 19.38 0 015.901-.916zM15.375 87.115a32.17 32.17 0 004.392 2.988c6.99 3.959 16.217 6.239 26.358 6.239 5.502 0 10.722-.683 15.473-1.93a26.727 26.727 0 004.624 13.018c-5.343 2.439-12.367 4.039-20.097 4.039-8.964 0-17.036-2.106-22.567-5.24-5.53-3.134-8.183-6.94-8.183-10.518v-8.596z"/></svg><svg viewBox="0 0 163 163" id="ticker-4" xmlns="http://www.w3.org/2000/svg"><path fill-rule="evenodd" clip-rule="evenodd" d="M134.984 10.188c-9.785 0-17.828 8.042-17.828 17.828 0 3.055.793 5.943 2.169 8.466l-9.242 9.232C102.235 39.432 92.3 35.656 81.5 35.656c-10.8 0-20.735 3.776-28.583 10.058l-9.212-9.212c2.835-5.281 2.985-11.879-.21-17.41-4.898-8.486-15.898-11.436-24.383-6.537-8.486 4.9-11.426 15.9-6.527 24.385 4.814 8.337 15.506 11.32 23.927 6.775l9.203 9.202C39.43 60.765 35.656 70.7 35.656 81.5c0 10.8 3.776 20.735 10.059 28.583l-9.233 9.242-.01.001a17.613 17.613 0 00-8.457-2.169c-9.785 0-17.828 8.042-17.828 17.828s8.043 17.828 17.828 17.828c9.786 0 17.829-8.042 17.829-17.828 0-3.055-.793-5.943-2.17-8.466l9.124-9.113a5.092 5.092 0 002.188 1.442c7.495 5.339 16.642 8.497 26.514 8.497 10.213 0 19.656-3.365 27.289-9.044.443-.25.845-.565 1.194-.935.031-.025.065-.055.099-.08l9.242 9.242a17.622 17.622 0 00-2.169 8.456c.001 9.786 8.043 17.828 17.829 17.828 9.786 0 17.828-8.042 17.828-17.828s-8.042-17.828-17.828-17.828c-3.055 0-5.933.793-8.457 2.169l-.01.001-9.232-9.243c6.283-7.847 10.058-17.782 10.058-28.582s-3.775-20.736-10.058-28.583l9.242-9.242a17.617 17.617 0 008.456 2.168c9.786 0 17.829-8.042 17.829-17.828 0-9.785-8.042-17.828-17.828-17.828zM27.846 20.334c2.712-.083 5.35 1.295 6.825 3.85 2.147 3.718.912 8.32-2.805 10.466-3.718 2.147-8.31.912-10.456-2.805-2.146-3.717-.922-8.32 2.795-10.466a7.735 7.735 0 013.642-1.045zm107.138.04c4.28 0 7.641 3.36 7.641 7.64 0 4.28-3.36 7.641-7.641 7.641-4.28 0-7.64-3.36-7.64-7.64 0-4.28 3.36-7.641 7.64-7.641zM81.5 45.844c19.753 0 35.656 15.903 35.656 35.656 0 9.04-3.337 17.266-8.844 23.539a30.752 30.752 0 00-13.809-12.993c4.494-3.748 7.372-9.377 7.372-15.64 0-11.192-9.183-20.375-20.375-20.375s-20.375 9.183-20.375 20.375c0 6.263 2.878 11.892 7.372 15.64a30.756 30.756 0 00-13.809 12.993c-5.507-6.273-8.844-14.498-8.844-23.539 0-19.753 15.903-35.656 35.656-35.656zm0 20.375c5.687 0 10.188 4.5 10.188 10.187 0 5.687-4.501 10.188-10.188 10.188s-10.188-4.501-10.188-10.188S75.814 66.22 81.5 66.22zm0 33.11c8.51 0 15.736 5.166 18.803 12.505-5.453 3.378-11.891 5.322-18.803 5.322-6.912 0-13.35-1.944-18.803-5.322 3.066-7.339 10.294-12.506 18.803-12.506zm-53.484 28.015c4.28 0 7.64 3.36 7.64 7.64 0 4.28-3.36 7.641-7.64 7.641-4.28 0-7.641-3.361-7.641-7.641 0-4.28 3.36-7.64 7.64-7.64zm106.968 0c4.28 0 7.641 3.36 7.641 7.64 0 4.28-3.361 7.641-7.641 7.641-4.28 0-7.64-3.361-7.64-7.641 0-4.28 3.36-7.64 7.64-7.64z"/></svg><svg viewBox="0 0 138 138" id="ticker-5" xmlns="http://www.w3.org/2000/svg"><path fill-rule="evenodd" clip-rule="evenodd" d="M111.645 86.334a4.312 4.312 0 00-2.569 1.238l-7.732 7.733-3.42-3.42a4.312 4.312 0 00-6.098 6.098l6.469 6.469a4.314 4.314 0 006.098 0l10.781-10.781a4.31 4.31 0 00-1.623-7.12 4.313 4.313 0 00-1.906-.217zm-51.27-12.963a4.312 4.312 0 100 8.626h12.938a4.313 4.313 0 000-8.626H60.374zM30.188 60.434a4.313 4.313 0 00-4.313 4.313v17.25a4.313 4.313 0 004.313 4.312h17.25a4.314 4.314 0 004.312-4.313v-17.25a4.313 4.313 0 00-4.313-4.312h-17.25zm4.312 8.625h8.625v8.625H34.5v-8.625z"/><path fill-rule="evenodd" clip-rule="evenodd" d="M17.25 21.622c-4.704 0-8.625 3.92-8.625 8.625v64.687c0 4.704 3.921 8.625 8.625 8.625h61.866c3.57 10.027 13.166 17.25 24.384 17.25 14.239 0 25.875-11.636 25.875-25.875 0-7.624-3.339-14.501-8.625-19.246V30.246c0-4.703-3.921-8.624-8.625-8.624H17.25zm0 8.625h94.875v8.624H17.25v-8.625zm0 17.25h94.875V70.55a25.675 25.675 0 00-8.625-1.49c-13.794 0-25.145 10.915-25.841 24.543-.022.44-.035.886-.035 1.331H17.25l.001-47.438zm43.125 12.937a4.312 4.312 0 100 8.625h21.563a4.313 4.313 0 000-8.625H60.374zm43.125 17.25c9.578 0 17.25 7.672 17.25 17.25s-7.672 17.25-17.25 17.25a17.178 17.178 0 01-16.787-13.24 4.318 4.318 0 00-.227-1.121c-.013-.084-.03-.168-.043-.253a17.536 17.536 0 01-.101-.867 17.625 17.625 0 01-.093-1.769c0-.3.009-.597.026-.893.03-.59.082-1.17.169-1.743A17.184 17.184 0 01103.5 77.684z"/></svg><svg viewBox="0 0 107 107" id="ticker-6" xmlns="http://www.w3.org/2000/svg"><path fill-rule="evenodd" clip-rule="evenodd" d="M59.704 33.091a3.342 3.342 0 00-.51 6.61 9.982 9.982 0 017.746 11.886 3.343 3.343 0 006.544 1.377c1.896-8.996-3.915-17.912-12.911-19.807a3.337 3.337 0 00-.869-.066z"/><path fill-rule="evenodd" clip-rule="evenodd" d="M62.284 20.017a3.343 3.343 0 00-.333 6.596 23.356 23.356 0 0118.077 27.73 3.342 3.342 0 002.586 3.964 3.344 3.344 0 003.958-2.587c3.418-16.224-7.019-32.233-23.243-35.65a3.345 3.345 0 00-1.045-.053z"/><path fill-rule="evenodd" clip-rule="evenodd" d="M64.779 6.968a3.344 3.344 0 00-.072 6.557C84.623 17.721 97.312 37.182 93.116 57.1a3.342 3.342 0 002.586 3.964 3.344 3.344 0 003.957-2.587c4.942-23.452-10.122-46.553-33.574-51.495a3.344 3.344 0 00-1.306-.013zM23.34 6.727c-3.292-.06-6.358 1.448-8.195 4.493a58.866 58.866 0 00-.607 59.763l.006.02c10.823 18.589 30.863 29.731 52.187 29.343 4.064-.074 7.194-2.54 8.602-6.133l4.806-12.264A10.95 10.95 0 0076.9 69.52l-8.626-7.072c-4.44-3.643-11.234-2.423-14.133 2.533L50.907 70.5c-5.5-2.872-10.414-6.972-13.675-12.591v-.007c-3.41-5.904-4.45-12.529-4.003-19.005l6.119.392c5.715.367 10.405-4.826 9.463-10.475l-1.828-10.965a10.958 10.958 0 00-9.144-9.013L24.765 6.851a10.751 10.751 0 00-1.424-.124zm.419 6.733l13.075 1.992a4.222 4.222 0 013.552 3.5l1.829 10.965c.259 1.553-.872 2.798-2.443 2.698l-9.659-.62a3.343 3.343 0 00-3.513 2.807c-1.42 8.869.107 18.248 4.846 26.45v.007c4.527 7.805 11.438 13.634 19.35 16.94a3.344 3.344 0 004.173-1.397l4.944-8.45c.887-1.516 2.764-1.853 4.121-.739l8.62 7.08a4.204 4.204 0 011.255 4.813l-4.8 12.264c-.232.592-2.066 1.88-2.495 1.888-18.92.345-36.688-9.533-46.29-26.025a52.145 52.145 0 01.548-52.952c.222-.367 2.258-1.317 2.887-1.221z"/></svg><svg viewBox="0 0 130 130" id="ticker-7" xmlns="http://www.w3.org/2000/svg"><g clip-path="url(#oa)"><path fill-rule="evenodd" clip-rule="evenodd" d="M36.563 8.125c-6.682 0-12.188 5.506-12.188 12.188V32.5H16.25a4.062 4.062 0 000 8.125h8.125v20.313H16.25a4.062 4.062 0 000 8.124h8.125v20.313H16.25a4.062 4.062 0 000 8.125h8.125v12.188c0 6.681 5.506 12.187 12.188 12.187h69.062c6.682 0 12.187-5.506 12.187-12.187V20.312c0-6.681-5.505-12.187-12.187-12.187H36.562zm194.999 0c-6.681 0-12.187 5.506-12.187 12.188V32.5h-8.125a4.064 4.064 0 00-4.062 4.063 4.065 4.065 0 004.062 4.062h8.125v20.313h-8.125A4.064 4.064 0 00207.188 65a4.065 4.065 0 004.062 4.063h8.125v20.312h-8.125a4.064 4.064 0 00-4.062 4.063 4.065 4.065 0 004.062 4.062h8.125v12.188c0 6.681 5.506 12.187 12.187 12.187h69.063c6.682 0 12.187-5.506 12.187-12.187V20.312c0-6.681-5.505-12.187-12.187-12.187h-69.063zm-195 8.125h69.063c2.321 0 4.063 1.742 4.063 4.063v89.375c0 2.32-1.742 4.062-4.063 4.062H36.562c-2.32 0-4.062-1.742-4.062-4.062V97.5h4.063a4.062 4.062 0 000-8.125H32.5V69.062h4.063a4.062 4.062 0 000-8.124H32.5V40.624h4.063a4.062 4.062 0 000-8.125H32.5V20.312c0-2.32 1.742-4.062 4.063-4.062zm195 0h69.063c2.321 0 4.063 1.742 4.063 4.063v89.375c0 2.32-1.742 4.062-4.063 4.062h-69.063c-2.32 0-4.062-1.742-4.062-4.062V97.5h4.062a4.063 4.063 0 100-8.125H227.5V69.062h4.062a4.063 4.063 0 100-8.124H227.5V40.624h4.062a4.063 4.063 0 100-8.125H227.5V20.312c0-2.32 1.742-4.062 4.062-4.062zm-162.5 12.188c-8.926 0-16.25 7.323-16.25 16.25 0 8.926 7.324 16.25 16.25 16.25 8.927 0 16.25-7.324 16.25-16.25 0-8.927-7.323-16.25-16.25-16.25zm0 8.125c4.536 0 8.126 3.59 8.126 8.124 0 4.536-3.59 8.126-8.126 8.126-4.535 0-8.124-3.59-8.124-8.126 0-4.535 3.589-8.124 8.124-8.124zm199.063 0c-15.657 0-28.437 12.78-28.437 28.437 0 15.657 12.78 28.438 28.437 28.438a4.068 4.068 0 002.873-1.19 4.062 4.062 0 000-5.746 4.07 4.07 0 00-2.873-1.19A20.252 20.252 0 01247.812 65a20.252 20.252 0 0120.313-20.313A20.252 20.252 0 01288.438 65v8.125c0 2.292-1.771 4.063-4.063 4.063s-4.063-1.771-4.063-4.063V65c0-6.683-5.504-12.188-12.187-12.188S255.938 58.318 255.938 65c0 6.683 5.504 12.188 12.187 12.188a12.02 12.02 0 004.507-.881c1.416 5.16 6.16 9.005 11.743 9.005 6.683 0 12.187-5.504 12.187-12.187V65c.001-15.657-12.78-28.438-28.437-28.438zm0 24.374c2.292 0 4.063 1.771 4.063 4.063s-1.771 4.063-4.063 4.063-4.063-1.771-4.063-4.063 1.771-4.063 4.063-4.063zM60.937 65c-8.932 0-16.25 7.318-16.25 16.25s7.318 16.25 16.25 16.25h16.25c8.933 0 16.25-7.318 16.25-16.25S86.12 65 77.188 65h-16.25zm0 8.125h16.25c4.572 0 8.126 3.553 8.126 8.125s-3.554 8.125-8.126 8.125h-16.25c-4.571 0-8.124-3.553-8.124-8.125s3.553-8.125 8.124-8.125z"/></g><defs><clipPath id="oa"><path d="M0 0h130v130H0z"/></clipPath></defs></svg><svg viewBox="0 0 111 111" id="ticker-8" xmlns="http://www.w3.org/2000/svg"><path fill-rule="evenodd" clip-rule="evenodd" d="M98.372 51.665c-2.228 0-4.454.837-6.132 2.514L82.064 64.362c-1.128-1.78-2.887-3.166-5.054-3.747L53 54.18a14.222 14.222 0 00-5.813-.319c-1.92.291-3.784.97-5.46 2.026l-14.987 9.45-1.213-2.1c-1.51-2.616-4.986-3.543-7.602-2.032L6.531 67.782c-2.616 1.51-3.543 4.979-2.032 7.595L21.483 104.8c1.51 2.616 4.979 3.55 7.595 2.039l11.395-6.585c2.616-1.51 3.55-4.979 2.04-7.595l-.224-.386 6.497-4.397 23.909 4.702c3.276.644 6.197-.27 8.53-2.656 7.709-7.885 15.435-15.735 23.265-23.461l.013-.014c3.355-3.355 3.355-8.915 0-12.27-1.677-1.677-3.904-2.513-6.131-2.513zm0 6.877c.432 0 .865.181 1.226.542.72.72.716 1.731 0 2.452v.007c-7.874 7.77-15.62 15.647-23.333 23.536-.141.145-2.038.73-2.236.691l-25.317-4.972a3.472 3.472 0 00-2.609.528l-7.29 4.925-8.604-14.898 15.217-9.593a7.283 7.283 0 015.772-.88l24.017 6.435c.986.265 1.49 1.142 1.226 2.128-.264.986-1.134 1.49-2.12 1.226L59.24 66.631a3.469 3.469 0 00-1.796 6.7l15.081 4.038c3.385.907 6.892-.377 8.99-2.953.336-.154.645-.36.915-.61l14.715-14.722c.361-.36.794-.542 1.227-.542zM20.21 67.898l1.68 2.907c.056.493.218.97.474 1.395.227.346.514.65.847.894l12.608 21.843-9.018 5.203-15.609-27.039 9.018-5.203zm56.103-43.569a3.468 3.468 0 100 6.937 3.468 3.468 0 000-6.937zm-34.688 0a3.468 3.468 0 100 6.937 3.468 3.468 0 000-6.937zm17.344-6.938c-5.706 0-10.407 4.7-10.407 10.406 0 5.707 4.7 10.407 10.407 10.407 5.706 0 10.406-4.7 10.406-10.407 0-5.706-4.7-10.406-10.406-10.406zm0 6.938c1.957 0 3.468 1.512 3.468 3.468 0 1.957-1.511 3.47-3.468 3.47s-3.469-1.513-3.469-3.47c0-1.956 1.512-3.468 3.469-3.468z"/><path fill-rule="evenodd" clip-rule="evenodd" d="M34.688 6.985a3.47 3.47 0 00-3.47 3.469c0 1.957-1.511 3.468-3.468 3.468a3.47 3.47 0 00-3.469 3.47v20.812a3.469 3.469 0 003.469 3.468c1.957 0 3.469 1.512 3.469 3.47a3.469 3.469 0 003.468 3.468H83.25a3.47 3.47 0 003.469-3.469c0-1.957 1.512-3.469 3.469-3.469a3.47 3.47 0 003.468-3.468V17.39a3.469 3.469 0 00-3.469-3.469c-1.956 0-3.468-1.511-3.468-3.468a3.47 3.47 0 00-3.469-3.47H34.687zm2.018 6.937h44.525c1.063 2.65 2.838 4.426 5.488 5.488v16.768c-2.653 1.063-4.432 2.842-5.495 5.494h-44.51c-1.063-2.652-2.843-4.431-5.495-5.494V19.41c2.65-1.062 4.424-2.838 5.487-5.488z"/></svg><svg viewBox="0 0 24 24" id="to-top" xmlns="http://www.w3.org/2000/svg"><path fill-rule="evenodd" clip-rule="evenodd" d="M4.293 15.707a1 1 0 010-1.414l7-7a1 1 0 011.414 0l7 7a1 1 0 01-1.414 1.414L12 9.414l-6.293 6.293a1 1 0 01-1.414 0z"/></svg><svg viewBox="0 0 66 61" id="twit" xmlns="http://www.w3.org/2000/svg"><path d="M.451 50.206c7.219.607 13.677-1.06 19.53-5.111-.903-.19-1.728-.19-2.514-.37-4.602-1.012-7.786-3.574-9.655-7.565-.09-.203-.323-.453-.116-.655.154-.155.45-.024.67 0 1.624.155 3.248.107 4.847-.239.026-.262-.18-.238-.335-.285-3.958-.977-6.832-3.158-8.689-6.53-.85-1.548-1.314-3.169-1.366-4.908-.026-.68.013-.691.696-.393 1.624.715 3.326 1.12 5.272 1.203-.89-.667-1.688-1.25-2.371-1.954-2.076-2.132-3.236-4.622-3.48-7.494-.194-2.335.334-4.515 1.43-6.612.245-.465.464-.429.773-.083 2.153 2.43 4.667 4.491 7.438 6.278 2.063 1.335 4.254 2.443 6.562 3.384 3.042 1.227 6.2 2.05 9.474 2.538 1.031.154 2.088.19 3.133.285.528.048.67-.095.567-.595-.529-2.574-.168-5.076 1.044-7.423 2.075-4.003 5.556-6.433 10.287-7.077 4.202-.571 7.979.537 11.111 3.265.477.417.903.524 1.547.37 2.527-.597 4.937-1.442 7.206-2.634.065-.036.142-.047.374-.13-1.057 2.87-2.926 4.991-5.543 6.611.606.108 2.398-.19 3.635-.548 1.186-.345 2.372-.655 3.506-1.12.155.155.013.239-.051.322-1.508 1.966-3.236 3.741-5.298 5.218-.284.203-.554.43-.851.62-.22.143-.232.322-.22.524.091 2.169-.077 4.325-.412 6.458-.348 2.18-.94 4.3-1.727 6.386a36.562 36.562 0 01-2.307 4.968 36.51 36.51 0 01-8.753 10.4c-3.855 3.146-8.237 5.41-13.136 6.816a40.878 40.878 0 01-9.397 1.548c-2.475.12-4.937.084-7.386-.202-3.506-.393-6.884-1.275-10.132-2.562-1.663-.655-3.236-1.441-4.809-2.263-.219-.084-.438-.179-.554-.441z"/></svg></svg>