<svg width="49" height="67" viewBox="0 0 49 67" fill="none" xmlns="http://www.w3.org/2000/svg">
<g clip-path="url(#clip0_1107_619)">
<path d="M24.5004 10.1338C29.4856 10.1338 33.5398 13.3448 33.5398 17.2933C33.5398 21.2379 29.4856 24.4497 24.5004 24.4497C19.52 24.4497 15.461 21.2379 15.461 17.2933C15.461 13.3448 19.52 10.1338 24.5004 10.1338ZM24.5004 34.5797C36.5428 34.5797 46.3319 26.8263 46.3319 17.2933C46.3319 7.7564 36.5428 0 24.5004 0C12.4609 0 2.66884 7.7564 2.66884 17.2933C2.66884 26.8259 12.4609 34.5797 24.5004 34.5797ZM33.3331 48.6858C37.7775 47.8837 42.0639 46.4912 46.0109 44.5269C48.998 43.0358 49.8988 39.9077 48.0161 37.5414C46.1358 35.1697 42.1888 34.4567 39.1964 35.9478C30.2541 40.403 18.7399 40.4011 9.80247 35.9478C6.80954 34.4567 2.86302 35.1701 0.984683 37.5414C-0.897977 39.9096 -0.000144846 43.0358 2.98798 44.5269C6.9345 46.4889 11.2208 47.8837 15.6653 48.6858L3.45949 58.3529C0.964016 60.3313 0.964016 63.5382 3.46189 65.5162C4.71203 66.5044 6.34765 66.9997 7.98278 66.9997C9.62079 66.9997 11.2588 66.5048 12.5089 65.5162L24.4975 56.0166L36.4966 65.5162C38.9921 67.4946 43.041 67.4946 45.5384 65.5162C48.0387 63.5382 48.0387 60.329 45.5384 58.3529C45.5389 58.3529 33.3331 48.6858 33.3331 48.6858Z" fill="#B6B8B6"/>
</g>
<defs>
<clipPath id="clip0_1107_619">
<rect width="49" height="67" fill="white"/>
</clipPath>
</defs>
</svg>
