<svg width="130" height="130" viewBox="0 0 130 130" fill="none" xmlns="http://www.w3.org/2000/svg">
<g clip-path="url(#clip0_1267_180)">
<path fill-rule="evenodd" clip-rule="evenodd" d="M36.5625 8.125C29.8809 8.125 24.375 13.6309 24.375 20.3125V32.5H16.25C15.1726 32.5 14.1393 32.928 13.3774 33.6899C12.6156 34.4517 12.1875 35.4851 12.1875 36.5625C12.1875 37.6399 12.6156 38.6733 13.3774 39.4351C14.1393 40.197 15.1726 40.625 16.25 40.625H24.375V60.9375H16.25C15.1726 60.9375 14.1393 61.3655 13.3774 62.1274C12.6156 62.8892 12.1875 63.9226 12.1875 65C12.1875 66.0774 12.6156 67.1108 13.3774 67.8726C14.1393 68.6345 15.1726 69.0625 16.25 69.0625H24.375V89.375H16.25C15.1726 89.375 14.1393 89.803 13.3774 90.5649C12.6156 91.3267 12.1875 92.3601 12.1875 93.4375C12.1875 94.5149 12.6156 95.5483 13.3774 96.3101C14.1393 97.072 15.1726 97.5 16.25 97.5H24.375V109.688C24.375 116.369 29.8809 121.875 36.5625 121.875H105.625C112.307 121.875 117.812 116.369 117.812 109.688V20.3125C117.812 13.6309 112.307 8.125 105.625 8.125H36.5625ZM231.562 8.125C224.881 8.125 219.375 13.6309 219.375 20.3125V32.5H211.25C210.173 32.5 209.139 32.928 208.377 33.6899C207.616 34.4517 207.188 35.4851 207.188 36.5625C207.188 37.6399 207.616 38.6733 208.377 39.4351C209.139 40.197 210.173 40.625 211.25 40.625H219.375V60.9375H211.25C210.173 60.9375 209.139 61.3655 208.377 62.1274C207.616 62.8892 207.188 63.9226 207.188 65C207.188 66.0774 207.616 67.1108 208.377 67.8726C209.139 68.6345 210.173 69.0625 211.25 69.0625H219.375V89.375H211.25C210.173 89.375 209.139 89.803 208.377 90.5649C207.616 91.3267 207.188 92.3601 207.188 93.4375C207.188 94.5149 207.616 95.5483 208.377 96.3101C209.139 97.072 210.173 97.5 211.25 97.5H219.375V109.688C219.375 116.369 224.881 121.875 231.562 121.875H300.625C307.307 121.875 312.812 116.369 312.812 109.688V20.3125C312.812 13.6309 307.307 8.125 300.625 8.125H231.562ZM36.5625 16.25H105.625C107.946 16.25 109.688 17.9916 109.688 20.3125V109.688C109.688 112.008 107.946 113.75 105.625 113.75H36.5625C34.2416 113.75 32.5 112.008 32.5 109.688V97.5H36.5625C37.6399 97.5 38.6732 97.072 39.4351 96.3101C40.1969 95.5483 40.625 94.5149 40.625 93.4375C40.625 92.3601 40.1969 91.3267 39.4351 90.5649C38.6732 89.803 37.6399 89.375 36.5625 89.375H32.5V69.0625H36.5625C37.6399 69.0625 38.6732 68.6345 39.4351 67.8726C40.1969 67.1108 40.625 66.0774 40.625 65C40.625 63.9226 40.1969 62.8892 39.4351 62.1274C38.6732 61.3655 37.6399 60.9375 36.5625 60.9375H32.5V40.625H36.5625C37.6399 40.625 38.6732 40.197 39.4351 39.4351C40.1969 38.6733 40.625 37.6399 40.625 36.5625C40.625 35.4851 40.1969 34.4517 39.4351 33.6899C38.6732 32.928 37.6399 32.5 36.5625 32.5H32.5V20.3125C32.5 17.9916 34.2416 16.25 36.5625 16.25ZM231.562 16.25H300.625C302.946 16.25 304.688 17.9916 304.688 20.3125V109.688C304.688 112.008 302.946 113.75 300.625 113.75H231.562C229.242 113.75 227.5 112.008 227.5 109.688V97.5H231.562C232.64 97.5 233.673 97.072 234.435 96.3101C235.197 95.5483 235.625 94.5149 235.625 93.4375C235.625 92.3601 235.197 91.3267 234.435 90.5649C233.673 89.803 232.64 89.375 231.562 89.375H227.5V69.0625H231.562C232.64 69.0625 233.673 68.6345 234.435 67.8726C235.197 67.1108 235.625 66.0774 235.625 65C235.625 63.9226 235.197 62.8892 234.435 62.1274C233.673 61.3655 232.64 60.9375 231.562 60.9375H227.5V40.625H231.562C232.64 40.625 233.673 40.197 234.435 39.4351C235.197 38.6733 235.625 37.6399 235.625 36.5625C235.625 35.4851 235.197 34.4517 234.435 33.6899C233.673 32.928 232.64 32.5 231.562 32.5H227.5V20.3125C227.5 17.9916 229.242 16.25 231.562 16.25ZM69.0625 28.4375C60.136 28.4375 52.8125 35.761 52.8125 44.6875C52.8125 53.614 60.136 60.9375 69.0625 60.9375C77.989 60.9375 85.3125 53.614 85.3125 44.6875C85.3125 35.761 77.989 28.4375 69.0625 28.4375ZM69.0625 36.5625C73.598 36.5625 77.1875 40.1521 77.1875 44.6875C77.1875 49.2229 73.598 52.8125 69.0625 52.8125C64.527 52.8125 60.9375 49.2229 60.9375 44.6875C60.9375 40.1521 64.527 36.5625 69.0625 36.5625ZM268.125 36.5625C252.468 36.5625 239.688 49.3426 239.688 65C239.688 80.6574 252.468 93.4375 268.125 93.4375C268.658 93.4375 269.187 93.3324 269.68 93.1283C270.173 92.9241 270.62 92.6249 270.998 92.2476C271.375 91.8704 271.674 91.4225 271.878 90.9296C272.082 90.4368 272.188 89.9085 272.188 89.375C272.188 88.8415 272.082 88.3132 271.878 87.8203C271.674 87.3274 271.375 86.8796 270.998 86.5024C270.62 86.1251 270.173 85.8259 269.68 85.6217C269.187 85.4176 268.658 85.3125 268.125 85.3125C256.859 85.3125 247.812 76.2664 247.812 65C247.812 53.7336 256.859 44.6875 268.125 44.6875C279.391 44.6875 288.438 53.7336 288.438 65V73.125C288.438 75.4168 286.667 77.1875 284.375 77.1875C282.083 77.1875 280.312 75.4168 280.312 73.125V65C280.312 58.3172 274.808 52.8125 268.125 52.8125C261.442 52.8125 255.938 58.3172 255.938 65C255.938 71.6828 261.442 77.1875 268.125 77.1875C269.714 77.1875 271.234 76.871 272.632 76.3068C274.048 81.4679 278.792 85.3125 284.375 85.3125C291.058 85.3125 296.562 79.8078 296.562 73.125V65C296.563 49.3426 283.782 36.5625 268.125 36.5625ZM268.125 60.9375C270.417 60.9375 272.188 62.7082 272.188 65C272.188 67.2918 270.417 69.0625 268.125 69.0625C265.833 69.0625 264.062 67.2918 264.062 65C264.062 62.7082 265.833 60.9375 268.125 60.9375ZM60.9375 65C52.0053 65 44.6875 72.3178 44.6875 81.25C44.6875 90.1822 52.0053 97.5 60.9375 97.5H77.1875C86.1197 97.5 93.4375 90.1822 93.4375 81.25C93.4375 72.3178 86.1197 65 77.1875 65H60.9375ZM60.9375 73.125H77.1875C81.759 73.125 85.3125 76.6785 85.3125 81.25C85.3125 85.8215 81.759 89.375 77.1875 89.375H60.9375C56.366 89.375 52.8125 85.8215 52.8125 81.25C52.8125 76.6785 56.366 73.125 60.9375 73.125Z" fill="black"/>
</g>
<defs>
<clipPath id="clip0_1267_180">
<rect width="130" height="130" fill="white"/>
</clipPath>
</defs>
</svg>
