<svg width="83" height="83" viewBox="0 0 83 83" fill="none" xmlns="http://www.w3.org/2000/svg">
<path fill-rule="evenodd" clip-rule="evenodd" d="M15.5625 44.1292C14.8746 44.1292 14.2149 44.4024 13.7284 44.8889C13.242 45.3753 12.9688 46.0351 12.9688 46.723C12.9688 47.4109 13.242 48.0706 13.7284 48.557C14.2149 49.0434 14.8746 49.3167 15.5625 49.3167H38.9062C39.5942 49.3167 40.2539 49.0434 40.7403 48.557C41.2267 48.0706 41.5 47.4109 41.5 46.723C41.5 46.0351 41.2267 45.3753 40.7403 44.8889C40.2539 44.4024 39.5942 44.1292 38.9062 44.1292H15.5625Z" fill="black"/>
<path fill-rule="evenodd" clip-rule="evenodd" d="M20.75 36.348C20.0621 36.348 19.4024 36.6212 18.9159 37.1076C18.4295 37.594 18.1562 38.2538 18.1562 38.9417C18.1562 39.6296 18.4295 40.2893 18.9159 40.7757C19.4024 41.2622 20.0621 41.5355 20.75 41.5355H38.9062C39.5942 41.5355 40.2539 41.2622 40.7403 40.7757C41.2267 40.2893 41.5 39.6296 41.5 38.9417C41.5 38.2538 41.2267 37.594 40.7403 37.1076C40.2539 36.6212 39.5942 36.348 38.9062 36.348H20.75Z" fill="black"/>
<path fill-rule="evenodd" clip-rule="evenodd" d="M28.5312 28.5667C27.8433 28.5667 27.1836 28.8399 26.6972 29.3264C26.2108 29.8128 25.9375 30.4726 25.9375 31.1605C25.9375 31.8484 26.2108 32.5081 26.6972 32.9945C27.1836 33.4809 27.8433 33.7542 28.5312 33.7542H38.9062C39.5942 33.7542 40.2539 33.4809 40.7403 32.9945C41.2267 32.5081 41.5 31.8484 41.5 31.1605C41.5 30.4726 41.2267 29.8128 40.7403 29.3264C40.2539 28.8399 39.5942 28.5667 38.9062 28.5667H28.5312Z" fill="black"/>
<path fill-rule="evenodd" clip-rule="evenodd" d="M5.1875 15.598C4.49962 15.598 3.83993 15.8713 3.35352 16.3577C2.86711 16.8441 2.59382 17.5038 2.59375 18.1917V62.2855C2.59382 62.9733 2.86711 63.633 3.35352 64.1194C3.83993 64.6058 4.49962 64.8791 5.1875 64.8792H13.4196C14.4978 67.889 17.3902 70.0667 20.75 70.0667C24.1098 70.0667 27.0022 67.889 28.0804 64.8792H49.2812H54.9196C55.9978 67.889 58.8902 70.0667 62.25 70.0667C65.6098 70.0667 68.5022 67.889 69.5804 64.8792H77.8125C78.5004 64.8791 79.1601 64.6058 79.6465 64.1194C80.1329 63.633 80.4062 62.9733 80.4062 62.2855V41.5355C80.4067 40.9463 80.2066 40.3746 79.8389 39.9144L69.4639 26.9456C69.2207 26.6419 68.9123 26.3968 68.5615 26.2284C68.2107 26.06 67.8266 25.9727 67.4375 25.973H51.875V18.1917C51.8749 17.5038 51.6016 16.8441 51.1152 16.3577C50.6288 15.8713 49.9691 15.598 49.2812 15.598H5.1875ZM7.78125 20.7855H46.6875V59.6917H28.0804C27.0022 56.6819 24.1098 54.5042 20.75 54.5042C17.3902 54.5042 14.4978 56.6819 13.4196 59.6917H7.78125V20.7855ZM51.875 31.1605H57.0625V44.1292C57.0626 44.8171 57.3359 45.4767 57.8223 45.9632C58.3087 46.4496 58.9684 46.7229 59.6562 46.723H75.2188V59.6917H69.5804C68.5022 56.6819 65.6098 54.5042 62.25 54.5042C58.8902 54.5042 55.9978 56.6819 54.9196 59.6917H51.875V31.1605ZM62.25 31.1605H66.1913L74.4893 41.5355H62.25V31.1605ZM20.75 59.6917C22.2132 59.6917 23.3438 60.8222 23.3438 62.2855C23.3438 63.7487 22.2132 64.8792 20.75 64.8792C19.2868 64.8792 18.1562 63.7487 18.1562 62.2855C18.1562 60.8222 19.2868 59.6917 20.75 59.6917ZM62.25 59.6917C63.7132 59.6917 64.8438 60.8222 64.8438 62.2855C64.8438 63.7487 63.7132 64.8792 62.25 64.8792C60.7868 64.8792 59.6562 63.7487 59.6562 62.2855C59.6562 60.8222 60.7868 59.6917 62.25 59.6917Z" fill="black"/>
</svg>
