<svg width="111" height="111" viewBox="0 0 111 111" fill="none" xmlns="http://www.w3.org/2000/svg">
<path fill-rule="evenodd" clip-rule="evenodd" d="M98.3716 51.6654C96.1443 51.6654 93.9176 52.5016 92.2403 54.1789L82.0644 64.3616C80.936 62.5817 79.1768 61.1956 77.0103 60.6151L53.0001 54.1789C51.0859 53.666 49.1067 53.5697 47.1872 53.8605C45.2677 54.1515 43.4029 54.8293 41.7266 55.8862L26.7406 65.3372L25.5279 63.237C24.0175 60.621 20.5423 59.6942 17.9264 61.2045L6.53103 67.7829C3.9151 69.2932 2.98823 72.7617 4.49856 75.3776L21.4832 104.801C22.9935 107.417 26.462 108.351 29.0779 106.84L40.4733 100.255C43.0892 98.7447 44.0228 95.2763 42.5125 92.6604L42.2892 92.2742L48.7863 87.8773L72.6949 92.5791C75.9705 93.223 78.8919 92.3092 81.2245 89.9233C88.9339 82.0379 96.6597 74.1883 104.49 66.4618C104.494 66.4572 104.499 66.4526 104.503 66.4479C107.858 63.0933 107.858 57.5333 104.503 54.1786C102.826 52.5013 100.599 51.6654 98.3716 51.6654ZM98.3716 58.5419C98.8042 58.5419 99.2369 58.723 99.5979 59.0839C100.318 59.8038 100.314 60.815 99.5979 61.5365V61.5433C91.7241 69.3135 83.978 77.1904 76.2651 85.0793C76.1236 85.2243 74.2267 85.8092 74.0294 85.7704L48.7116 80.7976C48.2634 80.7097 47.8023 80.7112 47.3547 80.8018C46.9071 80.8925 46.4818 81.0706 46.1032 81.326L38.8134 86.2514L30.2093 71.3534L45.4257 61.7601C47.1454 60.6759 49.2343 60.3533 51.198 60.8794L75.215 67.3155C76.201 67.5799 76.7055 68.4568 76.4412 69.4429C76.1769 70.4289 75.3067 70.9333 74.3207 70.6691L59.2398 66.6313C58.3512 66.3933 57.4045 66.518 56.6079 66.978C55.8113 67.4379 55.2301 68.1953 54.9919 69.0838C54.7539 69.9723 54.8787 70.919 55.3386 71.7156C55.7985 72.5122 56.556 73.0935 57.4444 73.3317L72.5254 77.3695C75.9103 78.2765 79.4171 76.9923 81.5156 74.4156C81.851 74.2623 82.1597 74.0565 82.4303 73.8059L97.1453 59.084C97.5063 58.7231 97.9389 58.5419 98.3716 58.5419ZM20.2096 67.8981L21.8897 70.8045C21.946 71.2983 22.1077 71.7743 22.364 72.2001C22.5907 72.5464 22.8775 72.8492 23.2108 73.0944L35.8189 94.9367L26.8015 100.14L11.1922 73.1012L20.2096 67.8981Z" fill="black"/>
<path fill-rule="evenodd" clip-rule="evenodd" d="M76.3125 24.3287C75.3925 24.3287 74.5103 24.6941 73.8598 25.3446C73.2093 25.9951 72.8438 26.8775 72.8438 27.7974C72.8438 28.7174 73.2093 29.5996 73.8598 30.2502C74.5103 30.9007 75.3925 31.2662 76.3125 31.2662C77.2325 31.2662 78.1147 30.9007 78.7652 30.2502C79.4157 29.5996 79.7812 28.7174 79.7812 27.7974C79.7812 26.8775 79.4157 25.9951 78.7652 25.3446C78.1147 24.6941 77.2325 24.3287 76.3125 24.3287Z" fill="black"/>
<path fill-rule="evenodd" clip-rule="evenodd" d="M41.625 24.3287C40.705 24.3287 39.8228 24.6941 39.1723 25.3446C38.5218 25.9951 38.1562 26.8775 38.1562 27.7974C38.1562 28.7174 38.5218 29.5996 39.1723 30.2502C39.8228 30.9007 40.705 31.2662 41.625 31.2662C42.545 31.2662 43.4272 30.9007 44.0777 30.2502C44.7282 29.5996 45.0938 28.7174 45.0938 27.7974C45.0938 26.8775 44.7282 25.9951 44.0777 25.3446C43.4272 24.6941 42.545 24.3287 41.625 24.3287Z" fill="black"/>
<path fill-rule="evenodd" clip-rule="evenodd" d="M58.9688 17.3912C53.2626 17.3912 48.5625 22.0913 48.5625 27.7974C48.5625 33.5036 53.2626 38.2037 58.9688 38.2037C64.6749 38.2037 69.375 33.5036 69.375 27.7974C69.375 22.0913 64.6749 17.3912 58.9688 17.3912ZM58.9688 24.3287C60.9256 24.3287 62.4375 25.8406 62.4375 27.7974C62.4375 29.7543 60.9256 31.2662 58.9688 31.2662C57.0119 31.2662 55.5 29.7543 55.5 27.7974C55.5 25.8406 57.0119 24.3287 58.9688 24.3287Z" fill="black"/>
<path fill-rule="evenodd" clip-rule="evenodd" d="M34.6875 6.98492C33.7676 6.98502 32.8853 7.35045 32.2348 8.00095C31.5843 8.65144 31.2188 9.53373 31.2188 10.4537C31.2188 12.4105 29.7068 13.9224 27.75 13.9224C26.8301 13.9225 25.9478 14.288 25.2973 14.9384C24.6468 15.5889 24.2813 16.4712 24.2812 17.3912V38.2037C24.2813 39.1236 24.6468 40.0058 25.2973 40.6563C25.9478 41.3068 26.8301 41.6723 27.75 41.6724C29.7068 41.6724 31.2188 43.1843 31.2188 45.1412C31.2188 46.0611 31.5843 46.9433 32.2348 47.5938C32.8853 48.2443 33.7676 48.6098 34.6875 48.6099H83.25C84.1699 48.6098 85.0522 48.2443 85.7027 47.5938C86.3532 46.9433 86.7187 46.0611 86.7188 45.1412C86.7188 43.1843 88.2307 41.6724 90.1875 41.6724C91.1074 41.6723 91.9897 41.3068 92.6402 40.6563C93.2907 40.0058 93.6562 39.1236 93.6562 38.2037V17.3912C93.6562 16.4712 93.2907 15.5889 92.6402 14.9384C91.9897 14.288 91.1074 13.9225 90.1875 13.9224C88.2307 13.9224 86.7188 12.4105 86.7188 10.4537C86.7187 9.53373 86.3532 8.65144 85.7027 8.00095C85.0522 7.35045 84.1699 6.98502 83.25 6.98492H34.6875ZM36.7064 13.9224H81.2311C82.2943 16.572 84.0686 18.3479 86.7188 19.4101V36.178C84.0663 37.2407 82.287 39.0199 81.2243 41.6724H36.7132C35.6505 39.0199 33.8712 37.2407 31.2188 36.178V19.4101C33.8689 18.3479 35.6432 16.572 36.7064 13.9224Z" fill="black"/>
</svg>
