<svg width="104" height="104" viewBox="0 0 104 104" fill="none" xmlns="http://www.w3.org/2000/svg">
<path fill-rule="evenodd" clip-rule="evenodd" d="M29.25 78.019C23.9037 78.019 19.5 82.4228 19.5 87.769C19.5 93.1153 23.9037 97.519 29.25 97.519C34.5963 97.519 39 93.1153 39 87.769C39 82.4228 34.5963 78.019 29.25 78.019ZM29.25 84.519C31.0834 84.519 32.5 85.9356 32.5 87.769C32.5 89.6025 31.0834 91.019 29.25 91.019C27.4166 91.019 26 89.6025 26 87.769C26 85.9356 27.4166 84.519 29.25 84.519Z" fill="black"/>
<path fill-rule="evenodd" clip-rule="evenodd" d="M78 78.019C72.6537 78.019 68.25 82.4228 68.25 87.769C68.25 93.1153 72.6537 97.519 78 97.519C83.3463 97.519 87.75 93.1153 87.75 87.769C87.75 82.4228 83.3463 78.019 78 78.019ZM78 84.519C79.8334 84.519 81.25 85.9356 81.25 87.769C81.25 89.6025 79.8334 91.019 78 91.019C76.1666 91.019 74.75 89.6025 74.75 87.769C74.75 85.9356 76.1666 84.519 78 84.519Z" fill="black"/>
<path fill-rule="evenodd" clip-rule="evenodd" d="M9.75 6.51904C7.95507 6.51904 6.5 7.97413 6.5 9.76904C6.5 11.564 7.95507 13.019 9.75 13.019H13.584L22.1978 56.0562C18.7177 57.5517 16.25 61.0201 16.25 65.019C16.25 70.3643 20.6547 74.769 26 74.769H84.5381C86.333 74.769 87.7881 73.314 87.7881 71.519C87.7881 69.7241 86.333 68.269 84.5381 68.269H26C24.1433 68.269 22.75 66.8758 22.75 65.019C22.75 63.1623 24.1433 61.769 26 61.769H78.0381H87.7881C89.3876 61.7698 90.7499 60.6067 91 59.0269L96.624 23.2769C96.936 21.3033 95.4102 19.5182 93.4121 19.519H21.5122L19.4365 9.13428C19.1337 7.61432 17.7998 6.5196 16.25 6.51904H9.75ZM22.8135 26.019H89.6099L85.0078 55.269L28.666 55.25L22.8135 26.019ZM35.75 32.519C33.9551 32.519 32.5 33.9741 32.5 35.769C32.5 37.564 33.9551 39.019 35.75 39.019H78.0381C79.833 39.019 81.2881 37.564 81.2881 35.769C81.2881 33.9741 79.833 32.519 78.0381 32.519H35.75ZM42.25 42.269C40.4551 42.269 39 43.7241 39 45.519C39 47.314 40.4551 48.769 42.25 48.769H71.5381C73.333 48.769 74.7881 47.314 74.7881 45.519C74.7881 43.7241 73.333 42.269 71.5381 42.269H42.25Z" fill="black"/>
</svg>
